<?xml version="1.0" encoding="UTF-8" standalone="no"?>
<!DOCTYPE svg PUBLIC "-//W3C//DTD SVG 1.1//EN"
 "http://www.w3.org/Graphics/SVG/1.1/DTD/svg11.dtd">
<!-- Generated by graphviz version 3.0.0 (20220226.1711)
 -->
<!-- Title: dependencies Pages: 1 -->
<svg width="312pt" height="174pt"
 viewBox="0.00 0.00 312.00 173.80" xmlns="http://www.w3.org/2000/svg" xmlns:xlink="http://www.w3.org/1999/xlink">
<g id="graph0" class="graph" transform="scale(1 1) rotate(0) translate(4 169.8)">
<title>dependencies</title>
<polygon fill="white" stroke="transparent" points="-4,4 -4,-169.8 308,-169.8 308,4 -4,4"/>
<text text-anchor="middle" x="152" y="-8.2" font-family="sans-serif" font-size="14.00">dependencies</text>
<g id="clust1" class="cluster">
<title>cluster_ContactEmailMappingModule</title>
<polygon fill="none" stroke="black" stroke-dasharray="1,5" points="8,-32.8 8,-157.8 296,-157.8 296,-32.8 8,-32.8"/>
</g>
<g id="clust6" class="cluster">
<title>cluster_ContactEmailMappingModule_providers</title>
<polygon fill="none" stroke="black" points="16,-40.8 16,-92.8 288,-92.8 288,-40.8 16,-40.8"/>
</g>
<!-- ContactEmailMappingService -->
<g id="node1" class="node">
<title>ContactEmailMappingService</title>
<ellipse fill="#fdb462" stroke="black" cx="152" cy="-66.8" rx="127.92" ry="18"/>
<text text-anchor="middle" x="152" y="-62.6" font-family="Times,serif" font-size="14.00">ContactEmailMappingService</text>
</g>
<!-- ContactEmailMappingModule -->
<g id="node2" class="node">
<title>ContactEmailMappingModule</title>
<polygon fill="#8dd3c7" stroke="black" points="245.58,-149.8 242.58,-153.8 221.58,-153.8 218.58,-149.8 58.42,-149.8 58.42,-113.8 245.58,-113.8 245.58,-149.8"/>
<text text-anchor="middle" x="152" y="-127.6" font-family="Times,serif" font-size="14.00">ContactEmailMappingModule</text>
</g>
<!-- ContactEmailMappingService&#45;&gt;ContactEmailMappingModule -->
<g id="edge1" class="edge">
<title>ContactEmailMappingService&#45;&gt;ContactEmailMappingModule</title>
<path fill="none" stroke="black" d="M152,-84.91C152,-84.91 152,-103.79 152,-103.79"/>
<polygon fill="black" stroke="black" points="148.5,-103.79 152,-113.79 155.5,-103.79 148.5,-103.79"/>
</g>
</g>
</svg>
