<?xml version="1.0" encoding="UTF-8" standalone="no"?>
<!DOCTYPE svg PUBLIC "-//W3C//DTD SVG 1.1//EN"
 "http://www.w3.org/Graphics/SVG/1.1/DTD/svg11.dtd">
<!-- Generated by graphviz version 3.0.0 (20220226.1711)
 -->
<!-- Title: dependencies Pages: 1 -->
<svg width="1245pt" height="174pt"
 viewBox="0.00 0.00 1245.00 173.80" xmlns="http://www.w3.org/2000/svg" xmlns:xlink="http://www.w3.org/1999/xlink">
<g id="graph0" class="graph" transform="scale(1 1) rotate(0) translate(4 169.8)">
<title>dependencies</title>
<polygon fill="white" stroke="transparent" points="-4,4 -4,-169.8 1241,-169.8 1241,4 -4,4"/>
<text text-anchor="middle" x="618.5" y="-8.2" font-family="sans-serif" font-size="14.00">dependencies</text>
<g id="clust1" class="cluster">
<title>cluster_DealModule</title>
<polygon fill="none" stroke="black" stroke-dasharray="1,5" points="8,-32.8 8,-157.8 1229,-157.8 1229,-32.8 8,-32.8"/>
</g>
<g id="clust3" class="cluster">
<title>cluster_DealModule_imports</title>
<polygon fill="none" stroke="black" points="16,-40.8 16,-92.8 1221,-92.8 1221,-40.8 16,-40.8"/>
</g>
<!-- DealAttachmentModule -->
<g id="node1" class="node">
<title>DealAttachmentModule</title>
<polygon fill="#8dd3c7" stroke="black" points="1212.79,-84.8 1209.79,-88.8 1188.79,-88.8 1185.79,-84.8 1061.21,-84.8 1061.21,-48.8 1212.79,-48.8 1212.79,-84.8"/>
<text text-anchor="middle" x="1137" y="-62.6" font-family="Times,serif" font-size="14.00">DealAttachmentModule</text>
</g>
<!-- DealModule -->
<g id="node7" class="node">
<title>DealModule</title>
<polygon fill="#8dd3c7" stroke="black" points="679.98,-149.8 676.98,-153.8 655.98,-153.8 652.98,-149.8 594.02,-149.8 594.02,-113.8 679.98,-113.8 679.98,-149.8"/>
<text text-anchor="middle" x="637" y="-127.6" font-family="Times,serif" font-size="14.00">DealModule</text>
</g>
<!-- DealAttachmentModule&#45;&gt;DealModule -->
<g id="edge1" class="edge">
<title>DealAttachmentModule&#45;&gt;DealModule</title>
<path fill="none" stroke="black" d="M1137,-85.08C1137,-106.12 1137,-137.8 1137,-137.8 1137,-137.8 690.06,-137.8 690.06,-137.8"/>
<polygon fill="black" stroke="black" points="690.06,-134.3 680.06,-137.8 690.06,-141.3 690.06,-134.3"/>
</g>
<!-- DealMasterMilestoneMappingModule -->
<g id="node2" class="node">
<title>DealMasterMilestoneMappingModule</title>
<polygon fill="#8dd3c7" stroke="black" points="1043.9,-84.8 1040.9,-88.8 1019.9,-88.8 1016.9,-84.8 812.1,-84.8 812.1,-48.8 1043.9,-48.8 1043.9,-84.8"/>
<text text-anchor="middle" x="928" y="-62.6" font-family="Times,serif" font-size="14.00">DealMasterMilestoneMappingModule</text>
</g>
<!-- DealMasterMilestoneMappingModule&#45;&gt;DealModule -->
<g id="edge2" class="edge">
<title>DealMasterMilestoneMappingModule&#45;&gt;DealModule</title>
<path fill="none" stroke="black" d="M928,-84.82C928,-102.17 928,-125.8 928,-125.8 928,-125.8 690.25,-125.8 690.25,-125.8"/>
<polygon fill="black" stroke="black" points="690.25,-122.3 680.25,-125.8 690.25,-129.3 690.25,-122.3"/>
</g>
<!-- DealMasterModule -->
<g id="node3" class="node">
<title>DealMasterModule</title>
<polygon fill="#8dd3c7" stroke="black" points="794.36,-84.8 791.36,-88.8 770.36,-88.8 767.36,-84.8 669.64,-84.8 669.64,-48.8 794.36,-48.8 794.36,-84.8"/>
<text text-anchor="middle" x="732" y="-62.6" font-family="Times,serif" font-size="14.00">DealMasterModule</text>
</g>
<!-- DealMasterModule&#45;&gt;DealModule -->
<g id="edge3" class="edge">
<title>DealMasterModule&#45;&gt;DealModule</title>
<path fill="none" stroke="black" d="M674.78,-84.91C674.78,-84.91 674.78,-103.79 674.78,-103.79"/>
<polygon fill="black" stroke="black" points="671.28,-103.79 674.78,-113.79 678.28,-103.79 671.28,-103.79"/>
</g>
<!-- DealMasterProductMappingModule -->
<g id="node4" class="node">
<title>DealMasterProductMappingModule</title>
<polygon fill="#8dd3c7" stroke="black" points="651.46,-84.8 648.46,-88.8 627.46,-88.8 624.46,-84.8 432.54,-84.8 432.54,-48.8 651.46,-48.8 651.46,-84.8"/>
<text text-anchor="middle" x="542" y="-62.6" font-family="Times,serif" font-size="14.00">DealMasterProductMappingModule</text>
</g>
<!-- DealMasterProductMappingModule&#45;&gt;DealModule -->
<g id="edge4" class="edge">
<title>DealMasterProductMappingModule&#45;&gt;DealModule</title>
<path fill="none" stroke="black" d="M622.74,-84.91C622.74,-84.91 622.74,-103.79 622.74,-103.79"/>
<polygon fill="black" stroke="black" points="619.24,-103.79 622.74,-113.79 626.24,-103.79 619.24,-103.79"/>
</g>
<!-- DealMilestoneMasterModule -->
<g id="node5" class="node">
<title>DealMilestoneMasterModule</title>
<polygon fill="#8dd3c7" stroke="black" points="414.35,-84.8 411.35,-88.8 390.35,-88.8 387.35,-84.8 233.65,-84.8 233.65,-48.8 414.35,-48.8 414.35,-84.8"/>
<text text-anchor="middle" x="324" y="-62.6" font-family="Times,serif" font-size="14.00">DealMilestoneMasterModule</text>
</g>
<!-- DealMilestoneMasterModule&#45;&gt;DealModule -->
<g id="edge5" class="edge">
<title>DealMilestoneMasterModule&#45;&gt;DealModule</title>
<path fill="none" stroke="black" d="M324,-84.82C324,-102.17 324,-125.8 324,-125.8 324,-125.8 583.81,-125.8 583.81,-125.8"/>
<polygon fill="black" stroke="black" points="583.81,-129.3 593.81,-125.8 583.81,-122.3 583.81,-129.3"/>
</g>
<!-- NotesManagementDealModule -->
<g id="node6" class="node">
<title>NotesManagementDealModule</title>
<polygon fill="#8dd3c7" stroke="black" points="215.72,-84.8 212.72,-88.8 191.72,-88.8 188.72,-84.8 24.28,-84.8 24.28,-48.8 215.72,-48.8 215.72,-84.8"/>
<text text-anchor="middle" x="120" y="-62.6" font-family="Times,serif" font-size="14.00">NotesManagementDealModule</text>
</g>
<!-- NotesManagementDealModule&#45;&gt;DealModule -->
<g id="edge6" class="edge">
<title>NotesManagementDealModule&#45;&gt;DealModule</title>
<path fill="none" stroke="black" d="M120,-85.08C120,-106.12 120,-137.8 120,-137.8 120,-137.8 583.81,-137.8 583.81,-137.8"/>
<polygon fill="black" stroke="black" points="583.81,-141.3 593.81,-137.8 583.81,-134.3 583.81,-141.3"/>
</g>
</g>
</svg>
