<?xml version="1.0" encoding="UTF-8" standalone="no"?>
<!DOCTYPE svg PUBLIC "-//W3C//DTD SVG 1.1//EN"
 "http://www.w3.org/Graphics/SVG/1.1/DTD/svg11.dtd">
<!-- Generated by graphviz version 3.0.0 (20220226.1711)
 -->
<!-- Title: dependencies Pages: 1 -->
<svg width="514pt" height="174pt"
 viewBox="0.00 0.00 514.00 173.80" xmlns="http://www.w3.org/2000/svg" xmlns:xlink="http://www.w3.org/1999/xlink">
<g id="graph0" class="graph" transform="scale(1 1) rotate(0) translate(4 169.8)">
<title>dependencies</title>
<polygon fill="white" stroke="transparent" points="-4,4 -4,-169.8 510,-169.8 510,4 -4,4"/>
<text text-anchor="middle" x="253" y="-8.2" font-family="sans-serif" font-size="14.00">dependencies</text>
<g id="clust1" class="cluster">
<title>cluster_ContactEmailModule</title>
<polygon fill="none" stroke="black" stroke-dasharray="1,5" points="8,-32.8 8,-157.8 498,-157.8 498,-32.8 8,-32.8"/>
</g>
<g id="clust3" class="cluster">
<title>cluster_ContactEmailModule_imports</title>
<polygon fill="none" stroke="black" points="16,-40.8 16,-92.8 490,-92.8 490,-40.8 16,-40.8"/>
</g>
<!-- ContactEmailMappingAttachmentModule -->
<g id="node1" class="node">
<title>ContactEmailMappingAttachmentModule</title>
<polygon fill="#8dd3c7" stroke="black" points="482.39,-84.8 479.39,-88.8 458.39,-88.8 455.39,-84.8 229.61,-84.8 229.61,-48.8 482.39,-48.8 482.39,-84.8"/>
<text text-anchor="middle" x="356" y="-62.6" font-family="Times,serif" font-size="14.00">ContactEmailMappingAttachmentModule</text>
</g>
<!-- ContactEmailModule -->
<g id="node3" class="node">
<title>ContactEmailModule</title>
<polygon fill="#8dd3c7" stroke="black" points="305.03,-149.8 302.03,-153.8 281.03,-153.8 278.03,-149.8 168.97,-149.8 168.97,-113.8 305.03,-113.8 305.03,-149.8"/>
<text text-anchor="middle" x="237" y="-127.6" font-family="Times,serif" font-size="14.00">ContactEmailModule</text>
</g>
<!-- ContactEmailMappingAttachmentModule&#45;&gt;ContactEmailModule -->
<g id="edge1" class="edge">
<title>ContactEmailMappingAttachmentModule&#45;&gt;ContactEmailModule</title>
<path fill="none" stroke="black" d="M267.53,-84.91C267.53,-84.91 267.53,-103.79 267.53,-103.79"/>
<polygon fill="black" stroke="black" points="264.03,-103.79 267.53,-113.79 271.03,-103.79 264.03,-103.79"/>
</g>
<!-- ContactEmailMappingModule -->
<g id="node2" class="node">
<title>ContactEmailMappingModule</title>
<polygon fill="#8dd3c7" stroke="black" points="211.58,-84.8 208.58,-88.8 187.58,-88.8 184.58,-84.8 24.42,-84.8 24.42,-48.8 211.58,-48.8 211.58,-84.8"/>
<text text-anchor="middle" x="118" y="-62.6" font-family="Times,serif" font-size="14.00">ContactEmailMappingModule</text>
</g>
<!-- ContactEmailMappingModule&#45;&gt;ContactEmailModule -->
<g id="edge2" class="edge">
<title>ContactEmailMappingModule&#45;&gt;ContactEmailModule</title>
<path fill="none" stroke="black" d="M190.14,-84.91C190.14,-84.91 190.14,-103.79 190.14,-103.79"/>
<polygon fill="black" stroke="black" points="186.64,-103.79 190.14,-113.79 193.64,-103.79 186.64,-103.79"/>
</g>
</g>
</svg>
