<?xml version="1.0" encoding="UTF-8" standalone="no"?>
<!DOCTYPE svg PUBLIC "-//W3C//DTD SVG 1.1//EN"
 "http://www.w3.org/Graphics/SVG/1.1/DTD/svg11.dtd">
<!-- Generated by graphviz version 3.0.0 (20220226.1711)
 -->
<!-- Title: dependencies Pages: 1 -->
<svg width="644pt" height="174pt"
 viewBox="0.00 0.00 644.00 173.80" xmlns="http://www.w3.org/2000/svg" xmlns:xlink="http://www.w3.org/1999/xlink">
<g id="graph0" class="graph" transform="scale(1 1) rotate(0) translate(4 169.8)">
<title>dependencies</title>
<polygon fill="white" stroke="transparent" points="-4,4 -4,-169.8 640,-169.8 640,4 -4,4"/>
<text text-anchor="middle" x="318" y="-8.2" font-family="sans-serif" font-size="14.00">dependencies</text>
<g id="clust1" class="cluster">
<title>cluster_CampaignModule</title>
<polygon fill="none" stroke="black" stroke-dasharray="1,5" points="8,-32.8 8,-157.8 628,-157.8 628,-32.8 8,-32.8"/>
</g>
<g id="clust3" class="cluster">
<title>cluster_CampaignModule_imports</title>
<polygon fill="none" stroke="black" points="16,-40.8 16,-92.8 620,-92.8 620,-40.8 16,-40.8"/>
</g>
<!-- CampaignMasterModule -->
<g id="node1" class="node">
<title>CampaignMasterModule</title>
<polygon fill="#8dd3c7" stroke="black" points="611.97,-84.8 608.97,-88.8 587.97,-88.8 584.97,-84.8 456.03,-84.8 456.03,-48.8 611.97,-48.8 611.97,-84.8"/>
<text text-anchor="middle" x="534" y="-62.6" font-family="Times,serif" font-size="14.00">CampaignMasterModule</text>
</g>
<!-- CampaignModule -->
<g id="node4" class="node">
<title>CampaignModule</title>
<polygon fill="#8dd3c7" stroke="black" points="404.6,-149.8 401.6,-153.8 380.6,-153.8 377.6,-149.8 287.4,-149.8 287.4,-113.8 404.6,-113.8 404.6,-149.8"/>
<text text-anchor="middle" x="346" y="-127.6" font-family="Times,serif" font-size="14.00">CampaignModule</text>
</g>
<!-- CampaignMasterModule&#45;&gt;CampaignModule -->
<g id="edge1" class="edge">
<title>CampaignMasterModule&#45;&gt;CampaignModule</title>
<path fill="none" stroke="black" d="M534,-84.91C534,-104.14 534,-131.8 534,-131.8 534,-131.8 414.71,-131.8 414.71,-131.8"/>
<polygon fill="black" stroke="black" points="414.71,-128.3 404.71,-131.8 414.71,-135.3 414.71,-128.3"/>
</g>
<!-- CampaignTypeMasterModule -->
<g id="node2" class="node">
<title>CampaignTypeMasterModule</title>
<polygon fill="#8dd3c7" stroke="black" points="438.24,-84.8 435.24,-88.8 414.24,-88.8 411.24,-84.8 253.76,-84.8 253.76,-48.8 438.24,-48.8 438.24,-84.8"/>
<text text-anchor="middle" x="346" y="-62.6" font-family="Times,serif" font-size="14.00">CampaignTypeMasterModule</text>
</g>
<!-- CampaignTypeMasterModule&#45;&gt;CampaignModule -->
<g id="edge2" class="edge">
<title>CampaignTypeMasterModule&#45;&gt;CampaignModule</title>
<path fill="none" stroke="black" d="M346,-84.91C346,-84.91 346,-103.79 346,-103.79"/>
<polygon fill="black" stroke="black" points="342.5,-103.79 346,-113.79 349.5,-103.79 342.5,-103.79"/>
</g>
<!-- ContactCampaignMappingModule -->
<g id="node3" class="node">
<title>ContactCampaignMappingModule</title>
<polygon fill="#8dd3c7" stroke="black" points="235.69,-84.8 232.69,-88.8 211.69,-88.8 208.69,-84.8 24.31,-84.8 24.31,-48.8 235.69,-48.8 235.69,-84.8"/>
<text text-anchor="middle" x="130" y="-62.6" font-family="Times,serif" font-size="14.00">ContactCampaignMappingModule</text>
</g>
<!-- ContactCampaignMappingModule&#45;&gt;CampaignModule -->
<g id="edge3" class="edge">
<title>ContactCampaignMappingModule&#45;&gt;CampaignModule</title>
<path fill="none" stroke="black" d="M130,-84.91C130,-104.14 130,-131.8 130,-131.8 130,-131.8 277.26,-131.8 277.26,-131.8"/>
<polygon fill="black" stroke="black" points="277.26,-135.3 287.26,-131.8 277.26,-128.3 277.26,-135.3"/>
</g>
</g>
</svg>
