<?xml version="1.0" encoding="UTF-8" standalone="no"?>
<!DOCTYPE svg PUBLIC "-//W3C//DTD SVG 1.1//EN"
 "http://www.w3.org/Graphics/SVG/1.1/DTD/svg11.dtd">
<!-- Generated by graphviz version 3.0.0 (20220226.1711)
 -->
<!-- Title: dependencies Pages: 1 -->
<svg width="282pt" height="174pt"
 viewBox="0.00 0.00 282.00 173.80" xmlns="http://www.w3.org/2000/svg" xmlns:xlink="http://www.w3.org/1999/xlink">
<g id="graph0" class="graph" transform="scale(1 1) rotate(0) translate(4 169.8)">
<title>dependencies</title>
<polygon fill="white" stroke="transparent" points="-4,4 -4,-169.8 278,-169.8 278,4 -4,4"/>
<text text-anchor="middle" x="137" y="-8.2" font-family="sans-serif" font-size="14.00">dependencies</text>
<g id="clust1" class="cluster">
<title>cluster_EventStatusMasterModule</title>
<polygon fill="none" stroke="black" stroke-dasharray="1,5" points="8,-32.8 8,-157.8 266,-157.8 266,-32.8 8,-32.8"/>
</g>
<g id="clust6" class="cluster">
<title>cluster_EventStatusMasterModule_providers</title>
<polygon fill="none" stroke="black" points="16,-40.8 16,-92.8 258,-92.8 258,-40.8 16,-40.8"/>
</g>
<!-- EventStatusMasterService -->
<g id="node1" class="node">
<title>EventStatusMasterService</title>
<ellipse fill="#fdb462" stroke="black" cx="137" cy="-66.8" rx="112.89" ry="18"/>
<text text-anchor="middle" x="137" y="-62.6" font-family="Times,serif" font-size="14.00">EventStatusMasterService</text>
</g>
<!-- EventStatusMasterModule -->
<g id="node2" class="node">
<title>EventStatusMasterModule</title>
<polygon fill="#8dd3c7" stroke="black" points="219.81,-149.8 216.81,-153.8 195.81,-153.8 192.81,-149.8 54.19,-149.8 54.19,-113.8 219.81,-113.8 219.81,-149.8"/>
<text text-anchor="middle" x="137" y="-127.6" font-family="Times,serif" font-size="14.00">EventStatusMasterModule</text>
</g>
<!-- EventStatusMasterService&#45;&gt;EventStatusMasterModule -->
<g id="edge1" class="edge">
<title>EventStatusMasterService&#45;&gt;EventStatusMasterModule</title>
<path fill="none" stroke="black" d="M137,-84.91C137,-84.91 137,-103.79 137,-103.79"/>
<polygon fill="black" stroke="black" points="133.5,-103.79 137,-113.79 140.5,-103.79 133.5,-103.79"/>
</g>
</g>
</svg>
