<?xml version="1.0" encoding="UTF-8" standalone="no"?>
<!DOCTYPE svg PUBLIC "-//W3C//DTD SVG 1.1//EN"
 "http://www.w3.org/Graphics/SVG/1.1/DTD/svg11.dtd">
<!-- Generated by graphviz version 3.0.0 (20220226.1711)
 -->
<!-- Title: dependencies Pages: 1 -->
<svg width="389pt" height="174pt"
 viewBox="0.00 0.00 389.00 173.80" xmlns="http://www.w3.org/2000/svg" xmlns:xlink="http://www.w3.org/1999/xlink">
<g id="graph0" class="graph" transform="scale(1 1) rotate(0) translate(4 169.8)">
<title>dependencies</title>
<polygon fill="white" stroke="transparent" points="-4,4 -4,-169.8 385,-169.8 385,4 -4,4"/>
<text text-anchor="middle" x="190.5" y="-8.2" font-family="sans-serif" font-size="14.00">dependencies</text>
<g id="clust1" class="cluster">
<title>cluster_ActivityModule</title>
<polygon fill="none" stroke="black" stroke-dasharray="1,5" points="8,-32.8 8,-157.8 373,-157.8 373,-32.8 8,-32.8"/>
</g>
<g id="clust3" class="cluster">
<title>cluster_ActivityModule_imports</title>
<polygon fill="none" stroke="black" points="16,-40.8 16,-92.8 365,-92.8 365,-40.8 16,-40.8"/>
</g>
<!-- ActivityMoniterModule -->
<g id="node1" class="node">
<title>ActivityMoniterModule</title>
<polygon fill="#8dd3c7" stroke="black" points="357.04,-84.8 354.04,-88.8 333.04,-88.8 330.04,-84.8 206.96,-84.8 206.96,-48.8 357.04,-48.8 357.04,-84.8"/>
<text text-anchor="middle" x="282" y="-62.6" font-family="Times,serif" font-size="14.00">ActivityMoniterModule</text>
</g>
<!-- ActivityModule -->
<g id="node3" class="node">
<title>ActivityModule</title>
<polygon fill="#8dd3c7" stroke="black" points="246.94,-149.8 243.94,-153.8 222.94,-153.8 219.94,-149.8 141.06,-149.8 141.06,-113.8 246.94,-113.8 246.94,-149.8"/>
<text text-anchor="middle" x="194" y="-127.6" font-family="Times,serif" font-size="14.00">ActivityModule</text>
</g>
<!-- ActivityMoniterModule&#45;&gt;ActivityModule -->
<g id="edge1" class="edge">
<title>ActivityMoniterModule&#45;&gt;ActivityModule</title>
<path fill="none" stroke="black" d="M226.72,-84.91C226.72,-84.91 226.72,-103.79 226.72,-103.79"/>
<polygon fill="black" stroke="black" points="223.22,-103.79 226.72,-113.79 230.22,-103.79 223.22,-103.79"/>
</g>
<!-- TransactionMasterModule -->
<g id="node2" class="node">
<title>TransactionMasterModule</title>
<polygon fill="#8dd3c7" stroke="black" points="188.01,-84.8 185.01,-88.8 164.01,-88.8 161.01,-84.8 23.99,-84.8 23.99,-48.8 188.01,-48.8 188.01,-84.8"/>
<text text-anchor="middle" x="106" y="-62.6" font-family="Times,serif" font-size="14.00">TransactionMasterModule</text>
</g>
<!-- TransactionMasterModule&#45;&gt;ActivityModule -->
<g id="edge2" class="edge">
<title>TransactionMasterModule&#45;&gt;ActivityModule</title>
<path fill="none" stroke="black" d="M164.77,-84.91C164.77,-84.91 164.77,-103.79 164.77,-103.79"/>
<polygon fill="black" stroke="black" points="161.27,-103.79 164.77,-113.79 168.27,-103.79 161.27,-103.79"/>
</g>
</g>
</svg>
