<?xml version="1.0" encoding="UTF-8" standalone="no"?>
<!DOCTYPE svg PUBLIC "-//W3C//DTD SVG 1.1//EN"
 "http://www.w3.org/Graphics/SVG/1.1/DTD/svg11.dtd">
<!-- Generated by graphviz version 3.0.0 (20220226.1711)
 -->
<!-- Title: dependencies Pages: 1 -->
<svg width="374pt" height="174pt"
 viewBox="0.00 0.00 374.00 173.80" xmlns="http://www.w3.org/2000/svg" xmlns:xlink="http://www.w3.org/1999/xlink">
<g id="graph0" class="graph" transform="scale(1 1) rotate(0) translate(4 169.8)">
<title>dependencies</title>
<polygon fill="white" stroke="transparent" points="-4,4 -4,-169.8 370,-169.8 370,4 -4,4"/>
<text text-anchor="middle" x="183" y="-8.2" font-family="sans-serif" font-size="14.00">dependencies</text>
<g id="clust1" class="cluster">
<title>cluster_DealMasterMilestoneMappingModule</title>
<polygon fill="none" stroke="black" stroke-dasharray="1,5" points="8,-32.8 8,-157.8 358,-157.8 358,-32.8 8,-32.8"/>
</g>
<g id="clust6" class="cluster">
<title>cluster_DealMasterMilestoneMappingModule_providers</title>
<polygon fill="none" stroke="black" points="16,-40.8 16,-92.8 350,-92.8 350,-40.8 16,-40.8"/>
</g>
<!-- DealMasterMilestoneMappingService -->
<g id="node1" class="node">
<title>DealMasterMilestoneMappingService</title>
<ellipse fill="#fdb462" stroke="black" cx="183" cy="-66.8" rx="158.56" ry="18"/>
<text text-anchor="middle" x="183" y="-62.6" font-family="Times,serif" font-size="14.00">DealMasterMilestoneMappingService</text>
</g>
<!-- DealMasterMilestoneMappingModule -->
<g id="node2" class="node">
<title>DealMasterMilestoneMappingModule</title>
<polygon fill="#8dd3c7" stroke="black" points="298.9,-149.8 295.9,-153.8 274.9,-153.8 271.9,-149.8 67.1,-149.8 67.1,-113.8 298.9,-113.8 298.9,-149.8"/>
<text text-anchor="middle" x="183" y="-127.6" font-family="Times,serif" font-size="14.00">DealMasterMilestoneMappingModule</text>
</g>
<!-- DealMasterMilestoneMappingService&#45;&gt;DealMasterMilestoneMappingModule -->
<g id="edge1" class="edge">
<title>DealMasterMilestoneMappingService&#45;&gt;DealMasterMilestoneMappingModule</title>
<path fill="none" stroke="black" d="M183,-84.91C183,-84.91 183,-103.79 183,-103.79"/>
<polygon fill="black" stroke="black" points="179.5,-103.79 183,-113.79 186.5,-103.79 179.5,-103.79"/>
</g>
</g>
</svg>
