<?xml version="1.0" encoding="UTF-8" standalone="no"?>
<!DOCTYPE svg PUBLIC "-//W3C//DTD SVG 1.1//EN"
 "http://www.w3.org/Graphics/SVG/1.1/DTD/svg11.dtd">
<!-- Generated by graphviz version 3.0.0 (20220226.1711)
 -->
<!-- Title: dependencies Pages: 1 -->
<svg width="280pt" height="174pt"
 viewBox="0.00 0.00 280.00 173.80" xmlns="http://www.w3.org/2000/svg" xmlns:xlink="http://www.w3.org/1999/xlink">
<g id="graph0" class="graph" transform="scale(1 1) rotate(0) translate(4 169.8)">
<title>dependencies</title>
<polygon fill="white" stroke="transparent" points="-4,4 -4,-169.8 276,-169.8 276,4 -4,4"/>
<text text-anchor="middle" x="136" y="-8.2" font-family="sans-serif" font-size="14.00">dependencies</text>
<g id="clust1" class="cluster">
<title>cluster_TransactionMasterModule</title>
<polygon fill="none" stroke="black" stroke-dasharray="1,5" points="8,-32.8 8,-157.8 264,-157.8 264,-32.8 8,-32.8"/>
</g>
<g id="clust6" class="cluster">
<title>cluster_TransactionMasterModule_providers</title>
<polygon fill="none" stroke="black" points="16,-40.8 16,-92.8 256,-92.8 256,-40.8 16,-40.8"/>
</g>
<!-- TransactionMasterService -->
<g id="node1" class="node">
<title>TransactionMasterService</title>
<ellipse fill="#fdb462" stroke="black" cx="136" cy="-66.8" rx="112.28" ry="18"/>
<text text-anchor="middle" x="136" y="-62.6" font-family="Times,serif" font-size="14.00">TransactionMasterService</text>
</g>
<!-- TransactionMasterModule -->
<g id="node2" class="node">
<title>TransactionMasterModule</title>
<polygon fill="#8dd3c7" stroke="black" points="218.01,-149.8 215.01,-153.8 194.01,-153.8 191.01,-149.8 53.99,-149.8 53.99,-113.8 218.01,-113.8 218.01,-149.8"/>
<text text-anchor="middle" x="136" y="-127.6" font-family="Times,serif" font-size="14.00">TransactionMasterModule</text>
</g>
<!-- TransactionMasterService&#45;&gt;TransactionMasterModule -->
<g id="edge1" class="edge">
<title>TransactionMasterService&#45;&gt;TransactionMasterModule</title>
<path fill="none" stroke="black" d="M136,-84.91C136,-84.91 136,-103.79 136,-103.79"/>
<polygon fill="black" stroke="black" points="132.5,-103.79 136,-113.79 139.5,-103.79 132.5,-103.79"/>
</g>
</g>
</svg>
