<?xml version="1.0" encoding="UTF-8" standalone="no"?>
<!DOCTYPE svg PUBLIC "-//W3C//DTD SVG 1.1//EN"
 "http://www.w3.org/Graphics/SVG/1.1/DTD/svg11.dtd">
<!-- Generated by graphviz version 3.0.0 (20220226.1711)
 -->
<!-- Title: dependencies Pages: 1 -->
<svg width="356pt" height="174pt"
 viewBox="0.00 0.00 356.00 173.80" xmlns="http://www.w3.org/2000/svg" xmlns:xlink="http://www.w3.org/1999/xlink">
<g id="graph0" class="graph" transform="scale(1 1) rotate(0) translate(4 169.8)">
<title>dependencies</title>
<polygon fill="white" stroke="transparent" points="-4,4 -4,-169.8 352,-169.8 352,4 -4,4"/>
<text text-anchor="middle" x="174" y="-8.2" font-family="sans-serif" font-size="14.00">dependencies</text>
<g id="clust1" class="cluster">
<title>cluster_DealMasterProductMappingModule</title>
<polygon fill="none" stroke="black" stroke-dasharray="1,5" points="8,-32.8 8,-157.8 340,-157.8 340,-32.8 8,-32.8"/>
</g>
<g id="clust6" class="cluster">
<title>cluster_DealMasterProductMappingModule_providers</title>
<polygon fill="none" stroke="black" points="16,-40.8 16,-92.8 332,-92.8 332,-40.8 16,-40.8"/>
</g>
<!-- DealMasterProductMappingService -->
<g id="node1" class="node">
<title>DealMasterProductMappingService</title>
<ellipse fill="#fdb462" stroke="black" cx="174" cy="-66.8" rx="149.9" ry="18"/>
<text text-anchor="middle" x="174" y="-62.6" font-family="Times,serif" font-size="14.00">DealMasterProductMappingService</text>
</g>
<!-- DealMasterProductMappingModule -->
<g id="node2" class="node">
<title>DealMasterProductMappingModule</title>
<polygon fill="#8dd3c7" stroke="black" points="283.46,-149.8 280.46,-153.8 259.46,-153.8 256.46,-149.8 64.54,-149.8 64.54,-113.8 283.46,-113.8 283.46,-149.8"/>
<text text-anchor="middle" x="174" y="-127.6" font-family="Times,serif" font-size="14.00">DealMasterProductMappingModule</text>
</g>
<!-- DealMasterProductMappingService&#45;&gt;DealMasterProductMappingModule -->
<g id="edge1" class="edge">
<title>DealMasterProductMappingService&#45;&gt;DealMasterProductMappingModule</title>
<path fill="none" stroke="black" d="M174,-84.91C174,-84.91 174,-103.79 174,-103.79"/>
<polygon fill="black" stroke="black" points="170.5,-103.79 174,-113.79 177.5,-103.79 170.5,-103.79"/>
</g>
</g>
</svg>
