<?xml version="1.0" encoding="UTF-8" standalone="no"?>
<!DOCTYPE svg PUBLIC "-//W3C//DTD SVG 1.1//EN"
 "http://www.w3.org/Graphics/SVG/1.1/DTD/svg11.dtd">
<!-- Generated by graphviz version 3.0.0 (20220226.1711)
 -->
<!-- Title: dependencies Pages: 1 -->
<svg width="318pt" height="174pt"
 viewBox="0.00 0.00 318.00 173.80" xmlns="http://www.w3.org/2000/svg" xmlns:xlink="http://www.w3.org/1999/xlink">
<g id="graph0" class="graph" transform="scale(1 1) rotate(0) translate(4 169.8)">
<title>dependencies</title>
<polygon fill="white" stroke="transparent" points="-4,4 -4,-169.8 314,-169.8 314,4 -4,4"/>
<text text-anchor="middle" x="155" y="-8.2" font-family="sans-serif" font-size="14.00">dependencies</text>
<g id="clust1" class="cluster">
<title>cluster_NotesManagementDealModule</title>
<polygon fill="none" stroke="black" stroke-dasharray="1,5" points="8,-32.8 8,-157.8 302,-157.8 302,-32.8 8,-32.8"/>
</g>
<g id="clust6" class="cluster">
<title>cluster_NotesManagementDealModule_providers</title>
<polygon fill="none" stroke="black" points="16,-40.8 16,-92.8 294,-92.8 294,-40.8 16,-40.8"/>
</g>
<!-- NotesManagementDealService -->
<g id="node1" class="node">
<title>NotesManagementDealService</title>
<ellipse fill="#fdb462" stroke="black" cx="155" cy="-66.8" rx="131.33" ry="18"/>
<text text-anchor="middle" x="155" y="-62.6" font-family="Times,serif" font-size="14.00">NotesManagementDealService</text>
</g>
<!-- NotesManagementDealModule -->
<g id="node2" class="node">
<title>NotesManagementDealModule</title>
<polygon fill="#8dd3c7" stroke="black" points="250.72,-149.8 247.72,-153.8 226.72,-153.8 223.72,-149.8 59.28,-149.8 59.28,-113.8 250.72,-113.8 250.72,-149.8"/>
<text text-anchor="middle" x="155" y="-127.6" font-family="Times,serif" font-size="14.00">NotesManagementDealModule</text>
</g>
<!-- NotesManagementDealService&#45;&gt;NotesManagementDealModule -->
<g id="edge1" class="edge">
<title>NotesManagementDealService&#45;&gt;NotesManagementDealModule</title>
<path fill="none" stroke="black" d="M155,-84.91C155,-84.91 155,-103.79 155,-103.79"/>
<polygon fill="black" stroke="black" points="151.5,-103.79 155,-113.79 158.5,-103.79 151.5,-103.79"/>
</g>
</g>
</svg>
