<?xml version="1.0" encoding="UTF-8" standalone="no"?>
<!DOCTYPE svg PUBLIC "-//W3C//DTD SVG 1.1//EN"
 "http://www.w3.org/Graphics/SVG/1.1/DTD/svg11.dtd">
<!-- Generated by graphviz version 3.0.0 (20220226.1711)
 -->
<!-- Title: dependencies Pages: 1 -->
<svg width="308pt" height="174pt"
 viewBox="0.00 0.00 308.00 173.80" xmlns="http://www.w3.org/2000/svg" xmlns:xlink="http://www.w3.org/1999/xlink">
<g id="graph0" class="graph" transform="scale(1 1) rotate(0) translate(4 169.8)">
<title>dependencies</title>
<polygon fill="white" stroke="transparent" points="-4,4 -4,-169.8 304,-169.8 304,4 -4,4"/>
<text text-anchor="middle" x="150" y="-8.2" font-family="sans-serif" font-size="14.00">dependencies</text>
<g id="clust1" class="cluster">
<title>cluster_CampaignTypeMasterModule</title>
<polygon fill="none" stroke="black" stroke-dasharray="1,5" points="8,-32.8 8,-157.8 292,-157.8 292,-32.8 8,-32.8"/>
</g>
<g id="clust6" class="cluster">
<title>cluster_CampaignTypeMasterModule_providers</title>
<polygon fill="none" stroke="black" points="16,-40.8 16,-92.8 284,-92.8 284,-40.8 16,-40.8"/>
</g>
<!-- CampaignTypeMasterService -->
<g id="node1" class="node">
<title>CampaignTypeMasterService</title>
<ellipse fill="#fdb462" stroke="black" cx="150" cy="-66.8" rx="126.19" ry="18"/>
<text text-anchor="middle" x="150" y="-62.6" font-family="Times,serif" font-size="14.00">CampaignTypeMasterService</text>
</g>
<!-- CampaignTypeMasterModule -->
<g id="node2" class="node">
<title>CampaignTypeMasterModule</title>
<polygon fill="#8dd3c7" stroke="black" points="242.24,-149.8 239.24,-153.8 218.24,-153.8 215.24,-149.8 57.76,-149.8 57.76,-113.8 242.24,-113.8 242.24,-149.8"/>
<text text-anchor="middle" x="150" y="-127.6" font-family="Times,serif" font-size="14.00">CampaignTypeMasterModule</text>
</g>
<!-- CampaignTypeMasterService&#45;&gt;CampaignTypeMasterModule -->
<g id="edge1" class="edge">
<title>CampaignTypeMasterService&#45;&gt;CampaignTypeMasterModule</title>
<path fill="none" stroke="black" d="M150,-84.91C150,-84.91 150,-103.79 150,-103.79"/>
<polygon fill="black" stroke="black" points="146.5,-103.79 150,-113.79 153.5,-103.79 146.5,-103.79"/>
</g>
</g>
</svg>
