<?xml version="1.0" encoding="UTF-8" standalone="no"?>
<!DOCTYPE svg PUBLIC "-//W3C//DTD SVG 1.1//EN"
 "http://www.w3.org/Graphics/SVG/1.1/DTD/svg11.dtd">
<!-- Generated by graphviz version 3.0.0 (20220226.1711)
 -->
<!-- Title: dependencies Pages: 1 -->
<svg width="778pt" height="174pt"
 viewBox="0.00 0.00 778.00 173.80" xmlns="http://www.w3.org/2000/svg" xmlns:xlink="http://www.w3.org/1999/xlink">
<g id="graph0" class="graph" transform="scale(1 1) rotate(0) translate(4 169.8)">
<title>dependencies</title>
<polygon fill="white" stroke="transparent" points="-4,4 -4,-169.8 774,-169.8 774,4 -4,4"/>
<text text-anchor="middle" x="385" y="-8.2" font-family="sans-serif" font-size="14.00">dependencies</text>
<g id="clust1" class="cluster">
<title>cluster_ContactModule</title>
<polygon fill="none" stroke="black" stroke-dasharray="1,5" points="8,-32.8 8,-157.8 762,-157.8 762,-32.8 8,-32.8"/>
</g>
<g id="clust3" class="cluster">
<title>cluster_ContactModule_imports</title>
<polygon fill="none" stroke="black" points="16,-40.8 16,-92.8 754,-92.8 754,-40.8 16,-40.8"/>
</g>
<!-- ContactDocumentMasterModule -->
<g id="node1" class="node">
<title>ContactDocumentMasterModule</title>
<polygon fill="#8dd3c7" stroke="black" points="746.29,-84.8 743.29,-88.8 722.29,-88.8 719.29,-84.8 545.71,-84.8 545.71,-48.8 746.29,-48.8 746.29,-84.8"/>
<text text-anchor="middle" x="646" y="-62.6" font-family="Times,serif" font-size="14.00">ContactDocumentMasterModule</text>
</g>
<!-- ContactModule -->
<g id="node5" class="node">
<title>ContactModule</title>
<polygon fill="#8dd3c7" stroke="black" points="421.6,-149.8 418.6,-153.8 397.6,-153.8 394.6,-149.8 318.4,-149.8 318.4,-113.8 421.6,-113.8 421.6,-149.8"/>
<text text-anchor="middle" x="370" y="-127.6" font-family="Times,serif" font-size="14.00">ContactModule</text>
</g>
<!-- ContactDocumentMasterModule&#45;&gt;ContactModule -->
<g id="edge1" class="edge">
<title>ContactDocumentMasterModule&#45;&gt;ContactModule</title>
<path fill="none" stroke="black" d="M646,-84.91C646,-104.14 646,-131.8 646,-131.8 646,-131.8 431.59,-131.8 431.59,-131.8"/>
<polygon fill="black" stroke="black" points="431.59,-128.3 421.59,-131.8 431.59,-135.3 431.59,-128.3"/>
</g>
<!-- ContactMasterModule -->
<g id="node2" class="node">
<title>ContactMasterModule</title>
<polygon fill="#8dd3c7" stroke="black" points="527.97,-84.8 524.97,-88.8 503.97,-88.8 500.97,-84.8 386.03,-84.8 386.03,-48.8 527.97,-48.8 527.97,-84.8"/>
<text text-anchor="middle" x="457" y="-62.6" font-family="Times,serif" font-size="14.00">ContactMasterModule</text>
</g>
<!-- ContactMasterModule&#45;&gt;ContactModule -->
<g id="edge2" class="edge">
<title>ContactMasterModule&#45;&gt;ContactModule</title>
<path fill="none" stroke="black" d="M403.78,-84.91C403.78,-84.91 403.78,-103.79 403.78,-103.79"/>
<polygon fill="black" stroke="black" points="400.28,-103.79 403.78,-113.79 407.28,-103.79 400.28,-103.79"/>
</g>
<!-- ContactVisitMasterModule -->
<g id="node3" class="node">
<title>ContactVisitMasterModule</title>
<polygon fill="#8dd3c7" stroke="black" points="367.7,-84.8 364.7,-88.8 343.7,-88.8 340.7,-84.8 198.3,-84.8 198.3,-48.8 367.7,-48.8 367.7,-84.8"/>
<text text-anchor="middle" x="283" y="-62.6" font-family="Times,serif" font-size="14.00">ContactVisitMasterModule</text>
</g>
<!-- ContactVisitMasterModule&#45;&gt;ContactModule -->
<g id="edge3" class="edge">
<title>ContactVisitMasterModule&#45;&gt;ContactModule</title>
<path fill="none" stroke="black" d="M343.03,-84.91C343.03,-84.91 343.03,-103.79 343.03,-103.79"/>
<polygon fill="black" stroke="black" points="339.53,-103.79 343.03,-113.79 346.53,-103.79 339.53,-103.79"/>
</g>
<!-- DocumentMasterModule -->
<g id="node4" class="node">
<title>DocumentMasterModule</title>
<polygon fill="#8dd3c7" stroke="black" points="180.25,-84.8 177.25,-88.8 156.25,-88.8 153.25,-84.8 23.75,-84.8 23.75,-48.8 180.25,-48.8 180.25,-84.8"/>
<text text-anchor="middle" x="102" y="-62.6" font-family="Times,serif" font-size="14.00">DocumentMasterModule</text>
</g>
<!-- DocumentMasterModule&#45;&gt;ContactModule -->
<g id="edge4" class="edge">
<title>DocumentMasterModule&#45;&gt;ContactModule</title>
<path fill="none" stroke="black" d="M102,-84.91C102,-104.14 102,-131.8 102,-131.8 102,-131.8 308.33,-131.8 308.33,-131.8"/>
<polygon fill="black" stroke="black" points="308.33,-135.3 318.33,-131.8 308.33,-128.3 308.33,-135.3"/>
</g>
</g>
</svg>
