<?xml version="1.0" encoding="UTF-8" standalone="no"?>
<!DOCTYPE svg PUBLIC "-//W3C//DTD SVG 1.1//EN"
 "http://www.w3.org/Graphics/SVG/1.1/DTD/svg11.dtd">
<!-- Generated by graphviz version 3.0.0 (20220226.1711)
 -->
<!-- Title: dependencies Pages: 1 -->
<svg width="288pt" height="174pt"
 viewBox="0.00 0.00 288.00 173.80" xmlns="http://www.w3.org/2000/svg" xmlns:xlink="http://www.w3.org/1999/xlink">
<g id="graph0" class="graph" transform="scale(1 1) rotate(0) translate(4 169.8)">
<title>dependencies</title>
<polygon fill="white" stroke="transparent" points="-4,4 -4,-169.8 284,-169.8 284,4 -4,4"/>
<text text-anchor="middle" x="140" y="-8.2" font-family="sans-serif" font-size="14.00">dependencies</text>
<g id="clust1" class="cluster">
<title>cluster_ContactVisitMasterModule</title>
<polygon fill="none" stroke="black" stroke-dasharray="1,5" points="8,-32.8 8,-157.8 272,-157.8 272,-32.8 8,-32.8"/>
</g>
<g id="clust6" class="cluster">
<title>cluster_ContactVisitMasterModule_providers</title>
<polygon fill="none" stroke="black" points="16,-40.8 16,-92.8 264,-92.8 264,-40.8 16,-40.8"/>
</g>
<!-- ContactVisitMasterService -->
<g id="node1" class="node">
<title>ContactVisitMasterService</title>
<ellipse fill="#fdb462" stroke="black" cx="140" cy="-66.8" rx="115.75" ry="18"/>
<text text-anchor="middle" x="140" y="-62.6" font-family="Times,serif" font-size="14.00">ContactVisitMasterService</text>
</g>
<!-- ContactVisitMasterModule -->
<g id="node2" class="node">
<title>ContactVisitMasterModule</title>
<polygon fill="#8dd3c7" stroke="black" points="224.7,-149.8 221.7,-153.8 200.7,-153.8 197.7,-149.8 55.3,-149.8 55.3,-113.8 224.7,-113.8 224.7,-149.8"/>
<text text-anchor="middle" x="140" y="-127.6" font-family="Times,serif" font-size="14.00">ContactVisitMasterModule</text>
</g>
<!-- ContactVisitMasterService&#45;&gt;ContactVisitMasterModule -->
<g id="edge1" class="edge">
<title>ContactVisitMasterService&#45;&gt;ContactVisitMasterModule</title>
<path fill="none" stroke="black" d="M140,-84.91C140,-84.91 140,-103.79 140,-103.79"/>
<polygon fill="black" stroke="black" points="136.5,-103.79 140,-113.79 143.5,-103.79 136.5,-103.79"/>
</g>
</g>
</svg>
