<?xml version="1.0" encoding="UTF-8" standalone="no"?>
<!DOCTYPE svg PUBLIC "-//W3C//DTD SVG 1.1//EN"
 "http://www.w3.org/Graphics/SVG/1.1/DTD/svg11.dtd">
<!-- Generated by graphviz version 3.0.0 (20220226.1711)
 -->
<!-- Title: dependencies Pages: 1 -->
<svg width="285pt" height="174pt"
 viewBox="0.00 0.00 285.00 173.80" xmlns="http://www.w3.org/2000/svg" xmlns:xlink="http://www.w3.org/1999/xlink">
<g id="graph0" class="graph" transform="scale(1 1) rotate(0) translate(4 169.8)">
<title>dependencies</title>
<polygon fill="white" stroke="transparent" points="-4,4 -4,-169.8 281,-169.8 281,4 -4,4"/>
<text text-anchor="middle" x="138.5" y="-8.2" font-family="sans-serif" font-size="14.00">dependencies</text>
<g id="clust1" class="cluster">
<title>cluster_TaskModule</title>
<polygon fill="none" stroke="black" stroke-dasharray="1,5" points="8,-32.8 8,-157.8 269,-157.8 269,-32.8 8,-32.8"/>
</g>
<g id="clust3" class="cluster">
<title>cluster_TaskModule_imports</title>
<polygon fill="none" stroke="black" points="16,-40.8 16,-92.8 261,-92.8 261,-40.8 16,-40.8"/>
</g>
<!-- task_category -->
<g id="node1" class="node">
<title>task_category</title>
<polygon fill="#8dd3c7" stroke="black" points="252.75,-84.8 249.75,-88.8 228.75,-88.8 225.75,-84.8 159.25,-84.8 159.25,-48.8 252.75,-48.8 252.75,-84.8"/>
<text text-anchor="middle" x="206" y="-62.6" font-family="Times,serif" font-size="14.00">task_category</text>
</g>
<!-- TaskModule -->
<g id="node3" class="node">
<title>TaskModule</title>
<polygon fill="#8dd3c7" stroke="black" points="187.27,-149.8 184.27,-153.8 163.27,-153.8 160.27,-149.8 100.73,-149.8 100.73,-113.8 187.27,-113.8 187.27,-149.8"/>
<text text-anchor="middle" x="144" y="-127.6" font-family="Times,serif" font-size="14.00">TaskModule</text>
</g>
<!-- task_category&#45;&gt;TaskModule -->
<g id="edge1" class="edge">
<title>task_category&#45;&gt;TaskModule</title>
<path fill="none" stroke="black" d="M173.26,-84.91C173.26,-84.91 173.26,-103.79 173.26,-103.79"/>
<polygon fill="black" stroke="black" points="169.76,-103.79 173.26,-113.79 176.76,-103.79 169.76,-103.79"/>
</g>
<!-- task_management -->
<g id="node2" class="node">
<title>task_management</title>
<polygon fill="#8dd3c7" stroke="black" points="141.58,-84.8 138.58,-88.8 117.58,-88.8 114.58,-84.8 24.42,-84.8 24.42,-48.8 141.58,-48.8 141.58,-84.8"/>
<text text-anchor="middle" x="83" y="-62.6" font-family="Times,serif" font-size="14.00">task_management</text>
</g>
<!-- task_management&#45;&gt;TaskModule -->
<g id="edge2" class="edge">
<title>task_management&#45;&gt;TaskModule</title>
<path fill="none" stroke="black" d="M121.08,-84.91C121.08,-84.91 121.08,-103.79 121.08,-103.79"/>
<polygon fill="black" stroke="black" points="117.58,-103.79 121.08,-113.79 124.58,-103.79 117.58,-103.79"/>
</g>
</g>
</svg>
