<?xml version="1.0" encoding="UTF-8" standalone="no"?>
<!DOCTYPE svg PUBLIC "-//W3C//DTD SVG 1.1//EN"
 "http://www.w3.org/Graphics/SVG/1.1/DTD/svg11.dtd">
<!-- Generated by graphviz version 3.0.0 (20220226.1711)
 -->
<!-- Title: dependencies Pages: 1 -->
<svg width="304pt" height="174pt"
 viewBox="0.00 0.00 304.00 173.80" xmlns="http://www.w3.org/2000/svg" xmlns:xlink="http://www.w3.org/1999/xlink">
<g id="graph0" class="graph" transform="scale(1 1) rotate(0) translate(4 169.8)">
<title>dependencies</title>
<polygon fill="white" stroke="transparent" points="-4,4 -4,-169.8 300,-169.8 300,4 -4,4"/>
<text text-anchor="middle" x="148" y="-8.2" font-family="sans-serif" font-size="14.00">dependencies</text>
<g id="clust1" class="cluster">
<title>cluster_DealMilestoneMasterModule</title>
<polygon fill="none" stroke="black" stroke-dasharray="1,5" points="8,-32.8 8,-157.8 288,-157.8 288,-32.8 8,-32.8"/>
</g>
<g id="clust6" class="cluster">
<title>cluster_DealMilestoneMasterModule_providers</title>
<polygon fill="none" stroke="black" points="16,-40.8 16,-92.8 280,-92.8 280,-40.8 16,-40.8"/>
</g>
<!-- DealMilestoneMasterService -->
<g id="node1" class="node">
<title>DealMilestoneMasterService</title>
<ellipse fill="#fdb462" stroke="black" cx="148" cy="-66.8" rx="123.82" ry="18"/>
<text text-anchor="middle" x="148" y="-62.6" font-family="Times,serif" font-size="14.00">DealMilestoneMasterService</text>
</g>
<!-- DealMilestoneMasterModule -->
<g id="node2" class="node">
<title>DealMilestoneMasterModule</title>
<polygon fill="#8dd3c7" stroke="black" points="238.35,-149.8 235.35,-153.8 214.35,-153.8 211.35,-149.8 57.65,-149.8 57.65,-113.8 238.35,-113.8 238.35,-149.8"/>
<text text-anchor="middle" x="148" y="-127.6" font-family="Times,serif" font-size="14.00">DealMilestoneMasterModule</text>
</g>
<!-- DealMilestoneMasterService&#45;&gt;DealMilestoneMasterModule -->
<g id="edge1" class="edge">
<title>DealMilestoneMasterService&#45;&gt;DealMilestoneMasterModule</title>
<path fill="none" stroke="black" d="M148,-84.91C148,-84.91 148,-103.79 148,-103.79"/>
<polygon fill="black" stroke="black" points="144.5,-103.79 148,-113.79 151.5,-103.79 144.5,-103.79"/>
</g>
</g>
</svg>
