<?xml version="1.0" encoding="UTF-8" standalone="no"?>
<!DOCTYPE svg PUBLIC "-//W3C//DTD SVG 1.1//EN"
 "http://www.w3.org/Graphics/SVG/1.1/DTD/svg11.dtd">
<!-- Generated by graphviz version 3.0.0 (20220226.1711)
 -->
<!-- Title: dependencies Pages: 1 -->
<svg width="3200pt" height="174pt"
 viewBox="0.00 0.00 3200.00 173.80" xmlns="http://www.w3.org/2000/svg" xmlns:xlink="http://www.w3.org/1999/xlink">
<g id="graph0" class="graph" transform="scale(1 1) rotate(0) translate(4 169.8)">
<title>dependencies</title>
<polygon fill="white" stroke="transparent" points="-4,4 -4,-169.8 3196,-169.8 3196,4 -4,4"/>
<text text-anchor="middle" x="1596" y="-8.2" font-family="sans-serif" font-size="14.00">dependencies</text>
<g id="clust1" class="cluster">
<title>cluster_AppModule</title>
<polygon fill="none" stroke="black" stroke-dasharray="1,5" points="8,-32.8 8,-157.8 3184,-157.8 3184,-32.8 8,-32.8"/>
</g>
<g id="clust3" class="cluster">
<title>cluster_AppModule_imports</title>
<polygon fill="none" stroke="black" points="154,-40.8 154,-92.8 3176,-92.8 3176,-40.8 154,-40.8"/>
</g>
<g id="clust6" class="cluster">
<title>cluster_AppModule_providers</title>
<polygon fill="none" stroke="black" points="16,-40.8 16,-92.8 146,-92.8 146,-40.8 16,-40.8"/>
</g>
<!-- ActivityModule -->
<g id="node1" class="node">
<title>ActivityModule</title>
<polygon fill="#8dd3c7" stroke="black" points="3167.94,-84.8 3164.94,-88.8 3143.94,-88.8 3140.94,-84.8 3062.06,-84.8 3062.06,-48.8 3167.94,-48.8 3167.94,-84.8"/>
<text text-anchor="middle" x="3115" y="-62.6" font-family="Times,serif" font-size="14.00">ActivityModule</text>
</g>
<!-- AppModule -->
<g id="node22" class="node">
<title>AppModule</title>
<polygon fill="#8dd3c7" stroke="black" points="1731.66,-149.8 1728.66,-153.8 1707.66,-153.8 1704.66,-149.8 1648.34,-149.8 1648.34,-113.8 1731.66,-113.8 1731.66,-149.8"/>
<text text-anchor="middle" x="1690" y="-127.6" font-family="Times,serif" font-size="14.00">AppModule</text>
</g>
<!-- ActivityModule&#45;&gt;AppModule -->
<g id="edge1" class="edge">
<title>ActivityModule&#45;&gt;AppModule</title>
<path fill="none" stroke="black" d="M3115,-84.95C3115,-108.56 3115,-146.8 3115,-146.8 3115,-146.8 1741.88,-146.8 1741.88,-146.8"/>
<polygon fill="black" stroke="black" points="1741.88,-143.3 1731.88,-146.8 1741.88,-150.3 1741.88,-143.3"/>
</g>
<!-- CallModule -->
<g id="node2" class="node">
<title>CallModule</title>
<polygon fill="#8dd3c7" stroke="black" points="3044.38,-84.8 3041.38,-88.8 3020.38,-88.8 3017.38,-84.8 2961.62,-84.8 2961.62,-48.8 3044.38,-48.8 3044.38,-84.8"/>
<text text-anchor="middle" x="3003" y="-62.6" font-family="Times,serif" font-size="14.00">CallModule</text>
</g>
<!-- CallModule&#45;&gt;AppModule -->
<g id="edge2" class="edge">
<title>CallModule&#45;&gt;AppModule</title>
<path fill="none" stroke="black" d="M3003,-85.05C3003,-107.82 3003,-143.8 3003,-143.8 3003,-143.8 1741.83,-143.8 1741.83,-143.8"/>
<polygon fill="black" stroke="black" points="1741.83,-140.3 1731.83,-143.8 1741.83,-147.3 1741.83,-140.3"/>
</g>
<!-- CampaignModule -->
<g id="node3" class="node">
<title>CampaignModule</title>
<polygon fill="#8dd3c7" stroke="black" points="2943.6,-84.8 2940.6,-88.8 2919.6,-88.8 2916.6,-84.8 2826.4,-84.8 2826.4,-48.8 2943.6,-48.8 2943.6,-84.8"/>
<text text-anchor="middle" x="2885" y="-62.6" font-family="Times,serif" font-size="14.00">CampaignModule</text>
</g>
<!-- CampaignModule&#45;&gt;AppModule -->
<g id="edge3" class="edge">
<title>CampaignModule&#45;&gt;AppModule</title>
<path fill="none" stroke="black" d="M2885,-85.09C2885,-107.01 2885,-140.8 2885,-140.8 2885,-140.8 1741.83,-140.8 1741.83,-140.8"/>
<polygon fill="black" stroke="black" points="1741.83,-137.3 1731.83,-140.8 1741.83,-144.3 1741.83,-137.3"/>
</g>
<!-- CompanyMasterModule -->
<g id="node4" class="node">
<title>CompanyMasterModule</title>
<polygon fill="#8dd3c7" stroke="black" points="2808.37,-84.8 2805.37,-88.8 2784.37,-88.8 2781.37,-84.8 2655.63,-84.8 2655.63,-48.8 2808.37,-48.8 2808.37,-84.8"/>
<text text-anchor="middle" x="2732" y="-62.6" font-family="Times,serif" font-size="14.00">CompanyMasterModule</text>
</g>
<!-- CompanyMasterModule&#45;&gt;AppModule -->
<g id="edge4" class="edge">
<title>CompanyMasterModule&#45;&gt;AppModule</title>
<path fill="none" stroke="black" d="M2732,-84.83C2732,-105.57 2732,-136.8 2732,-136.8 2732,-136.8 1741.81,-136.8 1741.81,-136.8"/>
<polygon fill="black" stroke="black" points="1741.81,-133.3 1731.81,-136.8 1741.81,-140.3 1741.81,-133.3"/>
</g>
<!-- ContactEmailModule -->
<g id="node5" class="node">
<title>ContactEmailModule</title>
<polygon fill="#8dd3c7" stroke="black" points="2637.03,-84.8 2634.03,-88.8 2613.03,-88.8 2610.03,-84.8 2500.97,-84.8 2500.97,-48.8 2637.03,-48.8 2637.03,-84.8"/>
<text text-anchor="middle" x="2569" y="-62.6" font-family="Times,serif" font-size="14.00">ContactEmailModule</text>
</g>
<!-- ContactEmailModule&#45;&gt;AppModule -->
<g id="edge5" class="edge">
<title>ContactEmailModule&#45;&gt;AppModule</title>
<path fill="none" stroke="black" d="M2569,-85.11C2569,-104.95 2569,-133.8 2569,-133.8 2569,-133.8 1741.8,-133.8 1741.8,-133.8"/>
<polygon fill="black" stroke="black" points="1741.8,-130.3 1731.8,-133.8 1741.8,-137.3 1741.8,-130.3"/>
</g>
<!-- ContactModule -->
<g id="node6" class="node">
<title>ContactModule</title>
<polygon fill="#8dd3c7" stroke="black" points="2482.6,-84.8 2479.6,-88.8 2458.6,-88.8 2455.6,-84.8 2379.4,-84.8 2379.4,-48.8 2482.6,-48.8 2482.6,-84.8"/>
<text text-anchor="middle" x="2431" y="-62.6" font-family="Times,serif" font-size="14.00">ContactModule</text>
</g>
<!-- ContactModule&#45;&gt;AppModule -->
<g id="edge6" class="edge">
<title>ContactModule&#45;&gt;AppModule</title>
<path fill="none" stroke="black" d="M2431,-84.97C2431,-103.89 2431,-130.8 2431,-130.8 2431,-130.8 1741.69,-130.8 1741.69,-130.8"/>
<polygon fill="black" stroke="black" points="1741.69,-127.3 1731.69,-130.8 1741.69,-134.3 1741.69,-127.3"/>
</g>
<!-- DealModule -->
<g id="node7" class="node">
<title>DealModule</title>
<polygon fill="#8dd3c7" stroke="black" points="2360.98,-84.8 2357.98,-88.8 2336.98,-88.8 2333.98,-84.8 2275.02,-84.8 2275.02,-48.8 2360.98,-48.8 2360.98,-84.8"/>
<text text-anchor="middle" x="2318" y="-62.6" font-family="Times,serif" font-size="14.00">DealModule</text>
</g>
<!-- DealModule&#45;&gt;AppModule -->
<g id="edge7" class="edge">
<title>DealModule&#45;&gt;AppModule</title>
<path fill="none" stroke="black" d="M2318,-85.1C2318,-103.07 2318,-127.8 2318,-127.8 2318,-127.8 1741.69,-127.8 1741.69,-127.8"/>
<polygon fill="black" stroke="black" points="1741.69,-124.3 1731.69,-127.8 1741.69,-131.3 1741.69,-124.3"/>
</g>
<!-- EventModule -->
<g id="node8" class="node">
<title>EventModule</title>
<polygon fill="#8dd3c7" stroke="black" points="2257.21,-84.8 2254.21,-88.8 2233.21,-88.8 2230.21,-84.8 2164.79,-84.8 2164.79,-48.8 2257.21,-48.8 2257.21,-84.8"/>
<text text-anchor="middle" x="2211" y="-62.6" font-family="Times,serif" font-size="14.00">EventModule</text>
</g>
<!-- EventModule&#45;&gt;AppModule -->
<g id="edge8" class="edge">
<title>EventModule&#45;&gt;AppModule</title>
<path fill="none" stroke="black" d="M2211,-84.84C2211,-101.53 2211,-123.8 2211,-123.8 2211,-123.8 1741.75,-123.8 1741.75,-123.8"/>
<polygon fill="black" stroke="black" points="1741.75,-120.3 1731.75,-123.8 1741.75,-127.3 1741.75,-120.3"/>
</g>
<!-- FinancialYearModule -->
<g id="node9" class="node">
<title>FinancialYearModule</title>
<polygon fill="#8dd3c7" stroke="black" points="2146.35,-84.8 2143.35,-88.8 2122.35,-88.8 2119.35,-84.8 2007.65,-84.8 2007.65,-48.8 2146.35,-48.8 2146.35,-84.8"/>
<text text-anchor="middle" x="2077" y="-62.6" font-family="Times,serif" font-size="14.00">FinancialYearModule</text>
</g>
<!-- FinancialYearModule&#45;&gt;AppModule -->
<g id="edge9" class="edge">
<title>FinancialYearModule&#45;&gt;AppModule</title>
<path fill="none" stroke="black" d="M2077,-85.08C2077,-100.75 2077,-120.8 2077,-120.8 2077,-120.8 1741.78,-120.8 1741.78,-120.8"/>
<polygon fill="black" stroke="black" points="1741.78,-117.3 1731.78,-120.8 1741.78,-124.3 1741.78,-117.3"/>
</g>
<!-- MenuMasterModule -->
<g id="node10" class="node">
<title>MenuMasterModule</title>
<polygon fill="#8dd3c7" stroke="black" points="1989.59,-84.8 1986.59,-88.8 1965.59,-88.8 1962.59,-84.8 1858.41,-84.8 1858.41,-48.8 1989.59,-48.8 1989.59,-84.8"/>
<text text-anchor="middle" x="1924" y="-62.6" font-family="Times,serif" font-size="14.00">MenuMasterModule</text>
</g>
<!-- MenuMasterModule&#45;&gt;AppModule -->
<g id="edge10" class="edge">
<title>MenuMasterModule&#45;&gt;AppModule</title>
<path fill="none" stroke="black" d="M1924,-84.92C1924,-99.58 1924,-117.8 1924,-117.8 1924,-117.8 1741.83,-117.8 1741.83,-117.8"/>
<polygon fill="black" stroke="black" points="1741.83,-114.3 1731.83,-117.8 1741.83,-121.3 1741.83,-114.3"/>
</g>
<!-- NotesManageModule -->
<g id="node11" class="node">
<title>NotesManageModule</title>
<polygon fill="#8dd3c7" stroke="black" points="1840.8,-84.8 1837.8,-88.8 1816.8,-88.8 1813.8,-84.8 1703.2,-84.8 1703.2,-48.8 1840.8,-48.8 1840.8,-84.8"/>
<text text-anchor="middle" x="1772" y="-62.6" font-family="Times,serif" font-size="14.00">NotesManageModule</text>
</g>
<!-- NotesManageModule&#45;&gt;AppModule -->
<g id="edge11" class="edge">
<title>NotesManageModule&#45;&gt;AppModule</title>
<path fill="none" stroke="black" d="M1717.59,-84.91C1717.59,-84.91 1717.59,-103.79 1717.59,-103.79"/>
<polygon fill="black" stroke="black" points="1714.09,-103.79 1717.59,-113.79 1721.09,-103.79 1714.09,-103.79"/>
</g>
<!-- ProductCategoryModule -->
<g id="node12" class="node">
<title>ProductCategoryModule</title>
<polygon fill="#8dd3c7" stroke="black" points="1685.42,-84.8 1682.42,-88.8 1661.42,-88.8 1658.42,-84.8 1530.58,-84.8 1530.58,-48.8 1685.42,-48.8 1685.42,-84.8"/>
<text text-anchor="middle" x="1608" y="-62.6" font-family="Times,serif" font-size="14.00">ProductCategoryModule</text>
</g>
<!-- ProductCategoryModule&#45;&gt;AppModule -->
<g id="edge12" class="edge">
<title>ProductCategoryModule&#45;&gt;AppModule</title>
<path fill="none" stroke="black" d="M1666.69,-84.91C1666.69,-84.91 1666.69,-103.79 1666.69,-103.79"/>
<polygon fill="black" stroke="black" points="1663.19,-103.79 1666.69,-113.79 1670.19,-103.79 1663.19,-103.79"/>
</g>
<!-- ProductMasterModule -->
<g id="node13" class="node">
<title>ProductMasterModule</title>
<polygon fill="#8dd3c7" stroke="black" points="1512.98,-84.8 1509.98,-88.8 1488.98,-88.8 1485.98,-84.8 1371.02,-84.8 1371.02,-48.8 1512.98,-48.8 1512.98,-84.8"/>
<text text-anchor="middle" x="1442" y="-62.6" font-family="Times,serif" font-size="14.00">ProductMasterModule</text>
</g>
<!-- ProductMasterModule&#45;&gt;AppModule -->
<g id="edge13" class="edge">
<title>ProductMasterModule&#45;&gt;AppModule</title>
<path fill="none" stroke="black" d="M1442,-84.92C1442,-99.58 1442,-117.8 1442,-117.8 1442,-117.8 1638.21,-117.8 1638.21,-117.8"/>
<polygon fill="black" stroke="black" points="1638.21,-121.3 1648.21,-117.8 1638.21,-114.3 1638.21,-121.3"/>
</g>
<!-- ProductRateMasterModule -->
<g id="node14" class="node">
<title>ProductRateMasterModule</title>
<polygon fill="#8dd3c7" stroke="black" points="1352.64,-84.8 1349.64,-88.8 1328.64,-88.8 1325.64,-84.8 1185.36,-84.8 1185.36,-48.8 1352.64,-48.8 1352.64,-84.8"/>
<text text-anchor="middle" x="1269" y="-62.6" font-family="Times,serif" font-size="14.00">ProductRateMasterModule</text>
</g>
<!-- ProductRateMasterModule&#45;&gt;AppModule -->
<g id="edge14" class="edge">
<title>ProductRateMasterModule&#45;&gt;AppModule</title>
<path fill="none" stroke="black" d="M1269,-85.08C1269,-100.75 1269,-120.8 1269,-120.8 1269,-120.8 1638.09,-120.8 1638.09,-120.8"/>
<polygon fill="black" stroke="black" points="1638.09,-124.3 1648.09,-120.8 1638.09,-117.3 1638.09,-124.3"/>
</g>
<!-- ProductTypeModule -->
<g id="node15" class="node">
<title>ProductTypeModule</title>
<polygon fill="#8dd3c7" stroke="black" points="1166.87,-84.8 1163.87,-88.8 1142.87,-88.8 1139.87,-84.8 1035.13,-84.8 1035.13,-48.8 1166.87,-48.8 1166.87,-84.8"/>
<text text-anchor="middle" x="1101" y="-62.6" font-family="Times,serif" font-size="14.00">ProductTypeModule</text>
</g>
<!-- ProductTypeModule&#45;&gt;AppModule -->
<g id="edge15" class="edge">
<title>ProductTypeModule&#45;&gt;AppModule</title>
<path fill="none" stroke="black" d="M1101,-84.84C1101,-101.53 1101,-123.8 1101,-123.8 1101,-123.8 1638.11,-123.8 1638.11,-123.8"/>
<polygon fill="black" stroke="black" points="1638.11,-127.3 1648.11,-123.8 1638.11,-120.3 1638.11,-127.3"/>
</g>
<!-- TaskModule -->
<g id="node16" class="node">
<title>TaskModule</title>
<polygon fill="#8dd3c7" stroke="black" points="1017.27,-84.8 1014.27,-88.8 993.27,-88.8 990.27,-84.8 930.73,-84.8 930.73,-48.8 1017.27,-48.8 1017.27,-84.8"/>
<text text-anchor="middle" x="974" y="-62.6" font-family="Times,serif" font-size="14.00">TaskModule</text>
</g>
<!-- TaskModule&#45;&gt;AppModule -->
<g id="edge16" class="edge">
<title>TaskModule&#45;&gt;AppModule</title>
<path fill="none" stroke="black" d="M974,-85.1C974,-103.07 974,-127.8 974,-127.8 974,-127.8 1638.15,-127.8 1638.15,-127.8"/>
<polygon fill="black" stroke="black" points="1638.15,-131.3 1648.15,-127.8 1638.15,-124.3 1638.15,-131.3"/>
</g>
<!-- TaxMasterModule -->
<g id="node17" class="node">
<title>TaxMasterModule</title>
<polygon fill="#8dd3c7" stroke="black" points="913.19,-84.8 910.19,-88.8 889.19,-88.8 886.19,-84.8 792.81,-84.8 792.81,-48.8 913.19,-48.8 913.19,-84.8"/>
<text text-anchor="middle" x="853" y="-62.6" font-family="Times,serif" font-size="14.00">TaxMasterModule</text>
</g>
<!-- TaxMasterModule&#45;&gt;AppModule -->
<g id="edge17" class="edge">
<title>TaxMasterModule&#45;&gt;AppModule</title>
<path fill="none" stroke="black" d="M853,-84.97C853,-103.89 853,-130.8 853,-130.8 853,-130.8 1638.21,-130.8 1638.21,-130.8"/>
<polygon fill="black" stroke="black" points="1638.21,-134.3 1648.21,-130.8 1638.21,-127.3 1638.21,-134.3"/>
</g>
<!-- UnitMasterModule -->
<g id="node18" class="node">
<title>UnitMasterModule</title>
<polygon fill="#8dd3c7" stroke="black" points="774.82,-84.8 771.82,-88.8 750.82,-88.8 747.82,-84.8 651.18,-84.8 651.18,-48.8 774.82,-48.8 774.82,-84.8"/>
<text text-anchor="middle" x="713" y="-62.6" font-family="Times,serif" font-size="14.00">UnitMasterModule</text>
</g>
<!-- UnitMasterModule&#45;&gt;AppModule -->
<g id="edge18" class="edge">
<title>UnitMasterModule&#45;&gt;AppModule</title>
<path fill="none" stroke="black" d="M713,-85.11C713,-104.95 713,-133.8 713,-133.8 713,-133.8 1638.33,-133.8 1638.33,-133.8"/>
<polygon fill="black" stroke="black" points="1638.33,-137.3 1648.33,-133.8 1638.33,-130.3 1638.33,-137.3"/>
</g>
<!-- UserMasterModule -->
<g id="node19" class="node">
<title>UserMasterModule</title>
<polygon fill="#8dd3c7" stroke="black" points="633.36,-84.8 630.36,-88.8 609.36,-88.8 606.36,-84.8 508.64,-84.8 508.64,-48.8 633.36,-48.8 633.36,-84.8"/>
<text text-anchor="middle" x="571" y="-62.6" font-family="Times,serif" font-size="14.00">UserMasterModule</text>
</g>
<!-- UserMasterModule&#45;&gt;AppModule -->
<g id="edge19" class="edge">
<title>UserMasterModule&#45;&gt;AppModule</title>
<path fill="none" stroke="black" d="M571,-84.83C571,-105.57 571,-136.8 571,-136.8 571,-136.8 1638.18,-136.8 1638.18,-136.8"/>
<polygon fill="black" stroke="black" points="1638.18,-140.3 1648.18,-136.8 1638.18,-133.3 1638.18,-140.3"/>
</g>
<!-- UserMenuAccessModule -->
<g id="node20" class="node">
<title>UserMenuAccessModule</title>
<polygon fill="#8dd3c7" stroke="black" points="490.3,-84.8 487.3,-88.8 466.3,-88.8 463.3,-84.8 331.7,-84.8 331.7,-48.8 490.3,-48.8 490.3,-84.8"/>
<text text-anchor="middle" x="411" y="-62.6" font-family="Times,serif" font-size="14.00">UserMenuAccessModule</text>
</g>
<!-- UserMenuAccessModule&#45;&gt;AppModule -->
<g id="edge20" class="edge">
<title>UserMenuAccessModule&#45;&gt;AppModule</title>
<path fill="none" stroke="black" d="M411,-85.09C411,-107.01 411,-140.8 411,-140.8 411,-140.8 1638.17,-140.8 1638.17,-140.8"/>
<polygon fill="black" stroke="black" points="1638.17,-144.3 1648.17,-140.8 1638.17,-137.3 1638.17,-144.3"/>
</g>
<!-- UserRoleMasterModule -->
<g id="node21" class="node">
<title>UserRoleMasterModule</title>
<polygon fill="#8dd3c7" stroke="black" points="313.8,-84.8 310.8,-88.8 289.8,-88.8 286.8,-84.8 162.2,-84.8 162.2,-48.8 313.8,-48.8 313.8,-84.8"/>
<text text-anchor="middle" x="238" y="-62.6" font-family="Times,serif" font-size="14.00">UserRoleMasterModule</text>
</g>
<!-- UserRoleMasterModule&#45;&gt;AppModule -->
<g id="edge21" class="edge">
<title>UserRoleMasterModule&#45;&gt;AppModule</title>
<path fill="none" stroke="black" d="M238,-85.05C238,-107.82 238,-143.8 238,-143.8 238,-143.8 1638.11,-143.8 1638.11,-143.8"/>
<polygon fill="black" stroke="black" points="1638.11,-147.3 1648.11,-143.8 1638.11,-140.3 1638.11,-147.3"/>
</g>
<!-- AppService -->
<g id="node23" class="node">
<title>AppService</title>
<ellipse fill="#fdb462" stroke="black" cx="81" cy="-66.8" rx="56.75" ry="18"/>
<text text-anchor="middle" x="81" y="-62.6" font-family="Times,serif" font-size="14.00">AppService</text>
</g>
<!-- AppService&#45;&gt;AppModule -->
<g id="edge22" class="edge">
<title>AppService&#45;&gt;AppModule</title>
<path fill="none" stroke="black" d="M81,-84.95C81,-108.56 81,-146.8 81,-146.8 81,-146.8 1638.2,-146.8 1638.2,-146.8"/>
<polygon fill="black" stroke="black" points="1638.2,-150.3 1648.2,-146.8 1638.2,-143.3 1638.2,-150.3"/>
</g>
</g>
</svg>
