<?xml version="1.0" encoding="UTF-8" standalone="no"?>
<!DOCTYPE svg PUBLIC "-//W3C//DTD SVG 1.1//EN"
 "http://www.w3.org/Graphics/SVG/1.1/DTD/svg11.dtd">
<!-- Generated by graphviz version 3.0.0 (20220226.1711)
 -->
<!-- Title: dependencies Pages: 1 -->
<svg width="346pt" height="174pt"
 viewBox="0.00 0.00 346.00 173.80" xmlns="http://www.w3.org/2000/svg" xmlns:xlink="http://www.w3.org/1999/xlink">
<g id="graph0" class="graph" transform="scale(1 1) rotate(0) translate(4 169.8)">
<title>dependencies</title>
<polygon fill="white" stroke="transparent" points="-4,4 -4,-169.8 342,-169.8 342,4 -4,4"/>
<text text-anchor="middle" x="169" y="-8.2" font-family="sans-serif" font-size="14.00">dependencies</text>
<g id="clust1" class="cluster">
<title>cluster_ContactCampaignMappingModule</title>
<polygon fill="none" stroke="black" stroke-dasharray="1,5" points="8,-32.8 8,-157.8 330,-157.8 330,-32.8 8,-32.8"/>
</g>
<g id="clust6" class="cluster">
<title>cluster_ContactCampaignMappingModule_providers</title>
<polygon fill="none" stroke="black" points="16,-40.8 16,-92.8 322,-92.8 322,-40.8 16,-40.8"/>
</g>
<!-- ContactCampaignMappingService -->
<g id="node1" class="node">
<title>ContactCampaignMappingService</title>
<ellipse fill="#fdb462" stroke="black" cx="169" cy="-66.8" rx="144.69" ry="18"/>
<text text-anchor="middle" x="169" y="-62.6" font-family="Times,serif" font-size="14.00">ContactCampaignMappingService</text>
</g>
<!-- ContactCampaignMappingModule -->
<g id="node2" class="node">
<title>ContactCampaignMappingModule</title>
<polygon fill="#8dd3c7" stroke="black" points="274.69,-149.8 271.69,-153.8 250.69,-153.8 247.69,-149.8 63.31,-149.8 63.31,-113.8 274.69,-113.8 274.69,-149.8"/>
<text text-anchor="middle" x="169" y="-127.6" font-family="Times,serif" font-size="14.00">ContactCampaignMappingModule</text>
</g>
<!-- ContactCampaignMappingService&#45;&gt;ContactCampaignMappingModule -->
<g id="edge1" class="edge">
<title>ContactCampaignMappingService&#45;&gt;ContactCampaignMappingModule</title>
<path fill="none" stroke="black" d="M169,-84.91C169,-84.91 169,-103.79 169,-103.79"/>
<polygon fill="black" stroke="black" points="165.5,-103.79 169,-113.79 172.5,-103.79 165.5,-103.79"/>
</g>
</g>
</svg>
