<?xml version="1.0" encoding="UTF-8" standalone="no"?>
<!DOCTYPE svg PUBLIC "-//W3C//DTD SVG 1.1//EN"
 "http://www.w3.org/Graphics/SVG/1.1/DTD/svg11.dtd">
<!-- Generated by graphviz version 3.0.0 (20220226.1711)
 -->
<!-- Title: dependencies Pages: 1 -->
<svg width="300pt" height="174pt"
 viewBox="0.00 0.00 300.00 173.80" xmlns="http://www.w3.org/2000/svg" xmlns:xlink="http://www.w3.org/1999/xlink">
<g id="graph0" class="graph" transform="scale(1 1) rotate(0) translate(4 169.8)">
<title>dependencies</title>
<polygon fill="white" stroke="transparent" points="-4,4 -4,-169.8 296,-169.8 296,4 -4,4"/>
<text text-anchor="middle" x="146" y="-8.2" font-family="sans-serif" font-size="14.00">dependencies</text>
<g id="clust1" class="cluster">
<title>cluster_CallLogManagementModule</title>
<polygon fill="none" stroke="black" stroke-dasharray="1,5" points="8,-32.8 8,-157.8 284,-157.8 284,-32.8 8,-32.8"/>
</g>
<g id="clust6" class="cluster">
<title>cluster_CallLogManagementModule_providers</title>
<polygon fill="none" stroke="black" points="16,-40.8 16,-92.8 276,-92.8 276,-40.8 16,-40.8"/>
</g>
<!-- CallLogManagementService -->
<g id="node1" class="node">
<title>CallLogManagementService</title>
<ellipse fill="#fdb462" stroke="black" cx="146" cy="-66.8" rx="122.11" ry="18"/>
<text text-anchor="middle" x="146" y="-62.6" font-family="Times,serif" font-size="14.00">CallLogManagementService</text>
</g>
<!-- CallLogManagementModule -->
<g id="node2" class="node">
<title>CallLogManagementModule</title>
<polygon fill="#8dd3c7" stroke="black" points="235.02,-149.8 232.02,-153.8 211.02,-153.8 208.02,-149.8 56.98,-149.8 56.98,-113.8 235.02,-113.8 235.02,-149.8"/>
<text text-anchor="middle" x="146" y="-127.6" font-family="Times,serif" font-size="14.00">CallLogManagementModule</text>
</g>
<!-- CallLogManagementService&#45;&gt;CallLogManagementModule -->
<g id="edge1" class="edge">
<title>CallLogManagementService&#45;&gt;CallLogManagementModule</title>
<path fill="none" stroke="black" d="M146,-84.91C146,-84.91 146,-103.79 146,-103.79"/>
<polygon fill="black" stroke="black" points="142.5,-103.79 146,-113.79 149.5,-103.79 142.5,-103.79"/>
</g>
</g>
</svg>
