<?xml version="1.0" encoding="UTF-8" standalone="no"?>
<!DOCTYPE svg PUBLIC "-//W3C//DTD SVG 1.1//EN"
 "http://www.w3.org/Graphics/SVG/1.1/DTD/svg11.dtd">
<!-- Generated by graphviz version 3.0.0 (20220226.1711)
 -->
<!-- Title: dependencies Pages: 1 -->
<svg width="402pt" height="174pt"
 viewBox="0.00 0.00 402.00 173.80" xmlns="http://www.w3.org/2000/svg" xmlns:xlink="http://www.w3.org/1999/xlink">
<g id="graph0" class="graph" transform="scale(1 1) rotate(0) translate(4 169.8)">
<title>dependencies</title>
<polygon fill="white" stroke="transparent" points="-4,4 -4,-169.8 398,-169.8 398,4 -4,4"/>
<text text-anchor="middle" x="197" y="-8.2" font-family="sans-serif" font-size="14.00">dependencies</text>
<g id="clust1" class="cluster">
<title>cluster_ContactEmailMappingAttachmentModule</title>
<polygon fill="none" stroke="black" stroke-dasharray="1,5" points="8,-32.8 8,-157.8 386,-157.8 386,-32.8 8,-32.8"/>
</g>
<g id="clust6" class="cluster">
<title>cluster_ContactEmailMappingAttachmentModule_providers</title>
<polygon fill="none" stroke="black" points="16,-40.8 16,-92.8 378,-92.8 378,-40.8 16,-40.8"/>
</g>
<!-- ContactEmailMappingAttachmentService -->
<g id="node1" class="node">
<title>ContactEmailMappingAttachmentService</title>
<ellipse fill="#fdb462" stroke="black" cx="197" cy="-66.8" rx="173.02" ry="18"/>
<text text-anchor="middle" x="197" y="-62.6" font-family="Times,serif" font-size="14.00">ContactEmailMappingAttachmentService</text>
</g>
<!-- ContactEmailMappingAttachmentModule -->
<g id="node2" class="node">
<title>ContactEmailMappingAttachmentModule</title>
<polygon fill="#8dd3c7" stroke="black" points="323.39,-149.8 320.39,-153.8 299.39,-153.8 296.39,-149.8 70.61,-149.8 70.61,-113.8 323.39,-113.8 323.39,-149.8"/>
<text text-anchor="middle" x="197" y="-127.6" font-family="Times,serif" font-size="14.00">ContactEmailMappingAttachmentModule</text>
</g>
<!-- ContactEmailMappingAttachmentService&#45;&gt;ContactEmailMappingAttachmentModule -->
<g id="edge1" class="edge">
<title>ContactEmailMappingAttachmentService&#45;&gt;ContactEmailMappingAttachmentModule</title>
<path fill="none" stroke="black" d="M197,-84.91C197,-84.91 197,-103.79 197,-103.79"/>
<polygon fill="black" stroke="black" points="193.5,-103.79 197,-113.79 200.5,-103.79 193.5,-103.79"/>
</g>
</g>
</svg>
