<?xml version="1.0" encoding="UTF-8" standalone="no"?>
<!DOCTYPE svg PUBLIC "-//W3C//DTD SVG 1.1//EN"
 "http://www.w3.org/Graphics/SVG/1.1/DTD/svg11.dtd">
<!-- Generated by graphviz version 3.0.0 (20220226.1711)
 -->
<!-- Title: dependencies Pages: 1 -->
<svg width="226pt" height="174pt"
 viewBox="0.00 0.00 226.00 173.80" xmlns="http://www.w3.org/2000/svg" xmlns:xlink="http://www.w3.org/1999/xlink">
<g id="graph0" class="graph" transform="scale(1 1) rotate(0) translate(4 169.8)">
<title>dependencies</title>
<polygon fill="white" stroke="transparent" points="-4,4 -4,-169.8 222,-169.8 222,4 -4,4"/>
<text text-anchor="middle" x="109" y="-8.2" font-family="sans-serif" font-size="14.00">dependencies</text>
<g id="clust1" class="cluster">
<title>cluster_UserMasterModule</title>
<polygon fill="none" stroke="black" stroke-dasharray="1,5" points="8,-32.8 8,-157.8 210,-157.8 210,-32.8 8,-32.8"/>
</g>
<g id="clust6" class="cluster">
<title>cluster_UserMasterModule_providers</title>
<polygon fill="none" stroke="black" points="16,-40.8 16,-92.8 202,-92.8 202,-40.8 16,-40.8"/>
</g>
<!-- UserMasterService -->
<g id="node1" class="node">
<title>UserMasterService</title>
<ellipse fill="#fdb462" stroke="black" cx="109" cy="-66.8" rx="85.09" ry="18"/>
<text text-anchor="middle" x="109" y="-62.6" font-family="Times,serif" font-size="14.00">UserMasterService</text>
</g>
<!-- UserMasterModule -->
<g id="node2" class="node">
<title>UserMasterModule</title>
<polygon fill="#8dd3c7" stroke="black" points="171.36,-149.8 168.36,-153.8 147.36,-153.8 144.36,-149.8 46.64,-149.8 46.64,-113.8 171.36,-113.8 171.36,-149.8"/>
<text text-anchor="middle" x="109" y="-127.6" font-family="Times,serif" font-size="14.00">UserMasterModule</text>
</g>
<!-- UserMasterService&#45;&gt;UserMasterModule -->
<g id="edge1" class="edge">
<title>UserMasterService&#45;&gt;UserMasterModule</title>
<path fill="none" stroke="black" d="M109,-84.91C109,-84.91 109,-103.79 109,-103.79"/>
<polygon fill="black" stroke="black" points="105.5,-103.79 109,-113.79 112.5,-103.79 105.5,-103.79"/>
</g>
</g>
</svg>
