<?xml version="1.0" encoding="UTF-8" standalone="no"?>
<!DOCTYPE svg PUBLIC "-//W3C//DTD SVG 1.1//EN"
 "http://www.w3.org/Graphics/SVG/1.1/DTD/svg11.dtd">
<!-- Generated by graphviz version 3.0.0 (20220226.1711)
 -->
<!-- Title: dependencies Pages: 1 -->
<svg width="270pt" height="174pt"
 viewBox="0.00 0.00 270.00 173.80" xmlns="http://www.w3.org/2000/svg" xmlns:xlink="http://www.w3.org/1999/xlink">
<g id="graph0" class="graph" transform="scale(1 1) rotate(0) translate(4 169.8)">
<title>dependencies</title>
<polygon fill="white" stroke="transparent" points="-4,4 -4,-169.8 266,-169.8 266,4 -4,4"/>
<text text-anchor="middle" x="131" y="-8.2" font-family="sans-serif" font-size="14.00">dependencies</text>
<g id="clust1" class="cluster">
<title>cluster_CampaignMasterModule</title>
<polygon fill="none" stroke="black" stroke-dasharray="1,5" points="8,-32.8 8,-157.8 254,-157.8 254,-32.8 8,-32.8"/>
</g>
<g id="clust6" class="cluster">
<title>cluster_CampaignMasterModule_providers</title>
<polygon fill="none" stroke="black" points="16,-40.8 16,-92.8 246,-92.8 246,-40.8 16,-40.8"/>
</g>
<!-- CampaignMasterService -->
<g id="node1" class="node">
<title>CampaignMasterService</title>
<ellipse fill="#fdb462" stroke="black" cx="131" cy="-66.8" rx="106.51" ry="18"/>
<text text-anchor="middle" x="131" y="-62.6" font-family="Times,serif" font-size="14.00">CampaignMasterService</text>
</g>
<!-- CampaignMasterModule -->
<g id="node2" class="node">
<title>CampaignMasterModule</title>
<polygon fill="#8dd3c7" stroke="black" points="208.97,-149.8 205.97,-153.8 184.97,-153.8 181.97,-149.8 53.03,-149.8 53.03,-113.8 208.97,-113.8 208.97,-149.8"/>
<text text-anchor="middle" x="131" y="-127.6" font-family="Times,serif" font-size="14.00">CampaignMasterModule</text>
</g>
<!-- CampaignMasterService&#45;&gt;CampaignMasterModule -->
<g id="edge1" class="edge">
<title>CampaignMasterService&#45;&gt;CampaignMasterModule</title>
<path fill="none" stroke="black" d="M131,-84.91C131,-84.91 131,-103.79 131,-103.79"/>
<polygon fill="black" stroke="black" points="127.5,-103.79 131,-113.79 134.5,-103.79 127.5,-103.79"/>
</g>
</g>
</svg>
