<?xml version="1.0" encoding="UTF-8" standalone="no"?>
<!DOCTYPE svg PUBLIC "-//W3C//DTD SVG 1.1//EN"
 "http://www.w3.org/Graphics/SVG/1.1/DTD/svg11.dtd">
<!-- Generated by graphviz version 3.0.0 (20220226.1711)
 -->
<!-- Title: dependencies Pages: 1 -->
<svg width="741pt" height="174pt"
 viewBox="0.00 0.00 741.00 173.80" xmlns="http://www.w3.org/2000/svg" xmlns:xlink="http://www.w3.org/1999/xlink">
<g id="graph0" class="graph" transform="scale(1 1) rotate(0) translate(4 169.8)">
<title>dependencies</title>
<polygon fill="white" stroke="transparent" points="-4,4 -4,-169.8 737,-169.8 737,4 -4,4"/>
<text text-anchor="middle" x="366.5" y="-8.2" font-family="sans-serif" font-size="14.00">dependencies</text>
<g id="clust1" class="cluster">
<title>cluster_EventModule</title>
<polygon fill="none" stroke="black" stroke-dasharray="1,5" points="8,-32.8 8,-157.8 725,-157.8 725,-32.8 8,-32.8"/>
</g>
<g id="clust3" class="cluster">
<title>cluster_EventModule_imports</title>
<polygon fill="none" stroke="black" points="16,-40.8 16,-92.8 717,-92.8 717,-40.8 16,-40.8"/>
</g>
<!-- EventMasterModule -->
<g id="node1" class="node">
<title>EventMasterModule</title>
<polygon fill="#8dd3c7" stroke="black" points="708.58,-84.8 705.58,-88.8 684.58,-88.8 681.58,-84.8 577.42,-84.8 577.42,-48.8 708.58,-48.8 708.58,-84.8"/>
<text text-anchor="middle" x="643" y="-62.6" font-family="Times,serif" font-size="14.00">EventMasterModule</text>
</g>
<!-- EventModule -->
<g id="node5" class="node">
<title>EventModule</title>
<polygon fill="#8dd3c7" stroke="black" points="425.21,-149.8 422.21,-153.8 401.21,-153.8 398.21,-149.8 332.79,-149.8 332.79,-113.8 425.21,-113.8 425.21,-149.8"/>
<text text-anchor="middle" x="379" y="-127.6" font-family="Times,serif" font-size="14.00">EventModule</text>
</g>
<!-- EventMasterModule&#45;&gt;EventModule -->
<g id="edge1" class="edge">
<title>EventMasterModule&#45;&gt;EventModule</title>
<path fill="none" stroke="black" d="M643,-84.91C643,-104.14 643,-131.8 643,-131.8 643,-131.8 435.29,-131.8 435.29,-131.8"/>
<polygon fill="black" stroke="black" points="435.29,-128.3 425.29,-131.8 435.29,-135.3 435.29,-128.3"/>
</g>
<!-- EventRelatedMasterModule -->
<g id="node2" class="node">
<title>EventRelatedMasterModule</title>
<polygon fill="#8dd3c7" stroke="black" points="559.84,-84.8 556.84,-88.8 535.84,-88.8 532.84,-84.8 386.16,-84.8 386.16,-48.8 559.84,-48.8 559.84,-84.8"/>
<text text-anchor="middle" x="473" y="-62.6" font-family="Times,serif" font-size="14.00">EventRelatedMasterModule</text>
</g>
<!-- EventRelatedMasterModule&#45;&gt;EventModule -->
<g id="edge2" class="edge">
<title>EventRelatedMasterModule&#45;&gt;EventModule</title>
<path fill="none" stroke="black" d="M405.59,-84.91C405.59,-84.91 405.59,-103.79 405.59,-103.79"/>
<polygon fill="black" stroke="black" points="402.09,-103.79 405.59,-113.79 409.09,-103.79 402.09,-103.79"/>
</g>
<!-- EventStatusMasterModule -->
<g id="node3" class="node">
<title>EventStatusMasterModule</title>
<polygon fill="#8dd3c7" stroke="black" points="367.81,-84.8 364.81,-88.8 343.81,-88.8 340.81,-84.8 202.19,-84.8 202.19,-48.8 367.81,-48.8 367.81,-84.8"/>
<text text-anchor="middle" x="285" y="-62.6" font-family="Times,serif" font-size="14.00">EventStatusMasterModule</text>
</g>
<!-- EventStatusMasterModule&#45;&gt;EventModule -->
<g id="edge3" class="edge">
<title>EventStatusMasterModule&#45;&gt;EventModule</title>
<path fill="none" stroke="black" d="M350.28,-84.91C350.28,-84.91 350.28,-103.79 350.28,-103.79"/>
<polygon fill="black" stroke="black" points="346.78,-103.79 350.28,-113.79 353.78,-103.79 346.78,-103.79"/>
</g>
<!-- EventTypeMasterModule -->
<g id="node4" class="node">
<title>EventTypeMasterModule</title>
<polygon fill="#8dd3c7" stroke="black" points="183.85,-84.8 180.85,-88.8 159.85,-88.8 156.85,-84.8 24.15,-84.8 24.15,-48.8 183.85,-48.8 183.85,-84.8"/>
<text text-anchor="middle" x="104" y="-62.6" font-family="Times,serif" font-size="14.00">EventTypeMasterModule</text>
</g>
<!-- EventTypeMasterModule&#45;&gt;EventModule -->
<g id="edge4" class="edge">
<title>EventTypeMasterModule&#45;&gt;EventModule</title>
<path fill="none" stroke="black" d="M104,-84.91C104,-104.14 104,-131.8 104,-131.8 104,-131.8 322.66,-131.8 322.66,-131.8"/>
<polygon fill="black" stroke="black" points="322.66,-135.3 332.66,-131.8 322.66,-128.3 322.66,-135.3"/>
</g>
</g>
</svg>
