<?xml version="1.0" encoding="UTF-8" standalone="no"?>
<!DOCTYPE svg PUBLIC "-//W3C//DTD SVG 1.1//EN"
 "http://www.w3.org/Graphics/SVG/1.1/DTD/svg11.dtd">
<!-- Generated by graphviz version 3.0.0 (20220226.1711)
 -->
<!-- Title: dependencies Pages: 1 -->
<svg width="330pt" height="174pt"
 viewBox="0.00 0.00 330.00 173.80" xmlns="http://www.w3.org/2000/svg" xmlns:xlink="http://www.w3.org/1999/xlink">
<g id="graph0" class="graph" transform="scale(1 1) rotate(0) translate(4 169.8)">
<title>dependencies</title>
<polygon fill="white" stroke="transparent" points="-4,4 -4,-169.8 326,-169.8 326,4 -4,4"/>
<text text-anchor="middle" x="161" y="-8.2" font-family="sans-serif" font-size="14.00">dependencies</text>
<g id="clust1" class="cluster">
<title>cluster_ContactDocumentMasterModule</title>
<polygon fill="none" stroke="black" stroke-dasharray="1,5" points="8,-32.8 8,-157.8 314,-157.8 314,-32.8 8,-32.8"/>
</g>
<g id="clust6" class="cluster">
<title>cluster_ContactDocumentMasterModule_providers</title>
<polygon fill="none" stroke="black" points="16,-40.8 16,-92.8 306,-92.8 306,-40.8 16,-40.8"/>
</g>
<!-- ContactDocumentMasterService -->
<g id="node1" class="node">
<title>ContactDocumentMasterService</title>
<ellipse fill="#fdb462" stroke="black" cx="161" cy="-66.8" rx="137.14" ry="18"/>
<text text-anchor="middle" x="161" y="-62.6" font-family="Times,serif" font-size="14.00">ContactDocumentMasterService</text>
</g>
<!-- ContactDocumentMasterModule -->
<g id="node2" class="node">
<title>ContactDocumentMasterModule</title>
<polygon fill="#8dd3c7" stroke="black" points="261.29,-149.8 258.29,-153.8 237.29,-153.8 234.29,-149.8 60.71,-149.8 60.71,-113.8 261.29,-113.8 261.29,-149.8"/>
<text text-anchor="middle" x="161" y="-127.6" font-family="Times,serif" font-size="14.00">ContactDocumentMasterModule</text>
</g>
<!-- ContactDocumentMasterService&#45;&gt;ContactDocumentMasterModule -->
<g id="edge1" class="edge">
<title>ContactDocumentMasterService&#45;&gt;ContactDocumentMasterModule</title>
<path fill="none" stroke="black" d="M161,-84.91C161,-84.91 161,-103.79 161,-103.79"/>
<polygon fill="black" stroke="black" points="157.5,-103.79 161,-113.79 164.5,-103.79 157.5,-103.79"/>
</g>
</g>
</svg>
