<?xml version="1.0" encoding="UTF-8" standalone="no"?>
<!DOCTYPE svg PUBLIC "-//W3C//DTD SVG 1.1//EN"
 "http://www.w3.org/Graphics/SVG/1.1/DTD/svg11.dtd">
<!-- Generated by graphviz version 3.0.0 (20220226.1711)
 -->
<!-- Title: dependencies Pages: 1 -->
<svg width="286pt" height="174pt"
 viewBox="0.00 0.00 286.00 173.80" xmlns="http://www.w3.org/2000/svg" xmlns:xlink="http://www.w3.org/1999/xlink">
<g id="graph0" class="graph" transform="scale(1 1) rotate(0) translate(4 169.8)">
<title>dependencies</title>
<polygon fill="white" stroke="transparent" points="-4,4 -4,-169.8 282,-169.8 282,4 -4,4"/>
<text text-anchor="middle" x="139" y="-8.2" font-family="sans-serif" font-size="14.00">dependencies</text>
<g id="clust1" class="cluster">
<title>cluster_ProductRateMasterModule</title>
<polygon fill="none" stroke="black" stroke-dasharray="1,5" points="8,-32.8 8,-157.8 270,-157.8 270,-32.8 8,-32.8"/>
</g>
<g id="clust6" class="cluster">
<title>cluster_ProductRateMasterModule_providers</title>
<polygon fill="none" stroke="black" points="16,-40.8 16,-92.8 262,-92.8 262,-40.8 16,-40.8"/>
</g>
<!-- ProductRateMasterService -->
<g id="node1" class="node">
<title>ProductRateMasterService</title>
<ellipse fill="#fdb462" stroke="black" cx="139" cy="-66.8" rx="114.59" ry="18"/>
<text text-anchor="middle" x="139" y="-62.6" font-family="Times,serif" font-size="14.00">ProductRateMasterService</text>
</g>
<!-- ProductRateMasterModule -->
<g id="node2" class="node">
<title>ProductRateMasterModule</title>
<polygon fill="#8dd3c7" stroke="black" points="222.64,-149.8 219.64,-153.8 198.64,-153.8 195.64,-149.8 55.36,-149.8 55.36,-113.8 222.64,-113.8 222.64,-149.8"/>
<text text-anchor="middle" x="139" y="-127.6" font-family="Times,serif" font-size="14.00">ProductRateMasterModule</text>
</g>
<!-- ProductRateMasterService&#45;&gt;ProductRateMasterModule -->
<g id="edge1" class="edge">
<title>ProductRateMasterService&#45;&gt;ProductRateMasterModule</title>
<path fill="none" stroke="black" d="M139,-84.91C139,-84.91 139,-103.79 139,-103.79"/>
<polygon fill="black" stroke="black" points="135.5,-103.79 139,-113.79 142.5,-103.79 135.5,-103.79"/>
</g>
</g>
</svg>
