<?xml version="1.0" encoding="UTF-8" standalone="no"?>
<!DOCTYPE svg PUBLIC "-//W3C//DTD SVG 1.1//EN"
 "http://www.w3.org/Graphics/SVG/1.1/DTD/svg11.dtd">
<!-- Generated by graphviz version 3.0.0 (20220226.1711)
 -->
<!-- Title: dependencies Pages: 1 -->
<svg width="264pt" height="174pt"
 viewBox="0.00 0.00 264.00 173.80" xmlns="http://www.w3.org/2000/svg" xmlns:xlink="http://www.w3.org/1999/xlink">
<g id="graph0" class="graph" transform="scale(1 1) rotate(0) translate(4 169.8)">
<title>dependencies</title>
<polygon fill="white" stroke="transparent" points="-4,4 -4,-169.8 260,-169.8 260,4 -4,4"/>
<text text-anchor="middle" x="128" y="-8.2" font-family="sans-serif" font-size="14.00">dependencies</text>
<g id="clust1" class="cluster">
<title>cluster_CompanyMasterModule</title>
<polygon fill="none" stroke="black" stroke-dasharray="1,5" points="8,-32.8 8,-157.8 248,-157.8 248,-32.8 8,-32.8"/>
</g>
<g id="clust6" class="cluster">
<title>cluster_CompanyMasterModule_providers</title>
<polygon fill="none" stroke="black" points="16,-40.8 16,-92.8 240,-92.8 240,-40.8 16,-40.8"/>
</g>
<!-- CompanyMasterService -->
<g id="node1" class="node">
<title>CompanyMasterService</title>
<ellipse fill="#fdb462" stroke="black" cx="128" cy="-66.8" rx="104.22" ry="18"/>
<text text-anchor="middle" x="128" y="-62.6" font-family="Times,serif" font-size="14.00">CompanyMasterService</text>
</g>
<!-- CompanyMasterModule -->
<g id="node2" class="node">
<title>CompanyMasterModule</title>
<polygon fill="#8dd3c7" stroke="black" points="204.37,-149.8 201.37,-153.8 180.37,-153.8 177.37,-149.8 51.63,-149.8 51.63,-113.8 204.37,-113.8 204.37,-149.8"/>
<text text-anchor="middle" x="128" y="-127.6" font-family="Times,serif" font-size="14.00">CompanyMasterModule</text>
</g>
<!-- CompanyMasterService&#45;&gt;CompanyMasterModule -->
<g id="edge1" class="edge">
<title>CompanyMasterService&#45;&gt;CompanyMasterModule</title>
<path fill="none" stroke="black" d="M128,-84.91C128,-84.91 128,-103.79 128,-103.79"/>
<polygon fill="black" stroke="black" points="124.5,-103.79 128,-113.79 131.5,-103.79 124.5,-103.79"/>
</g>
</g>
</svg>
